%TF.GenerationSoftware,KiCad,Pcbnew,8.0.5*%
%TF.CreationDate,2024-10-10T15:52:27-04:00*%
%TF.ProjectId,MovieMarqueeSAO,4d6f7669-654d-4617-9271-75656553414f,rev?*%
%TF.SameCoordinates,Original*%
%TF.FileFunction,Profile,NP*%
%FSLAX46Y46*%
G04 Gerber Fmt 4.6, Leading zero omitted, Abs format (unit mm)*
G04 Created by KiCad (PCBNEW 8.0.5) date 2024-10-10 15:52:27*
%MOMM*%
%LPD*%
G01*
G04 APERTURE LIST*
%TA.AperFunction,Profile*%
%ADD10C,0.499999*%
%TD*%
G04 APERTURE END LIST*
D10*
X129800000Y-75100000D02*
X132418594Y-75574303D01*
X140061757Y-77069607D01*
X147838574Y-78675545D01*
X150624237Y-79288141D01*
X152059872Y-79650162D01*
X152133438Y-79678040D01*
X152203448Y-79710470D01*
X152269871Y-79747286D01*
X152332676Y-79788325D01*
X152391833Y-79833422D01*
X152447310Y-79882412D01*
X152499078Y-79935131D01*
X152547105Y-79991415D01*
X152591360Y-80051098D01*
X152631813Y-80114017D01*
X152668434Y-80180007D01*
X152701190Y-80248903D01*
X152730052Y-80320541D01*
X152754989Y-80394757D01*
X152775970Y-80471386D01*
X152792964Y-80550263D01*
X152805940Y-80631224D01*
X152814868Y-80714105D01*
X152819718Y-80798741D01*
X152820457Y-80884967D01*
X152809483Y-81061533D01*
X152781702Y-81242487D01*
X152736865Y-81426514D01*
X152674729Y-81612297D01*
X152595046Y-81798521D01*
X152548548Y-81891387D01*
X152497571Y-81983869D01*
X152430758Y-82090143D01*
X152344366Y-82211959D01*
X152239756Y-82347897D01*
X152118290Y-82496536D01*
X151830233Y-82826233D01*
X151491086Y-83189686D01*
X151111738Y-83575526D01*
X150703082Y-83972389D01*
X150276006Y-84368908D01*
X149841403Y-84753717D01*
X147733521Y-86572727D01*
X157099873Y-97426326D01*
X160107912Y-100915274D01*
X161333865Y-102342039D01*
X162390909Y-103577890D01*
X163291399Y-104638497D01*
X164047685Y-105539528D01*
X164375613Y-105935100D01*
X164672122Y-106296653D01*
X164938756Y-106626148D01*
X165177060Y-106925542D01*
X165388578Y-107196794D01*
X165574854Y-107441863D01*
X165737432Y-107662707D01*
X165877856Y-107861285D01*
X165997670Y-108039556D01*
X166098418Y-108199479D01*
X166181644Y-108343012D01*
X166248893Y-108472113D01*
X166301708Y-108588742D01*
X166341634Y-108694856D01*
X166370214Y-108792416D01*
X166388992Y-108883379D01*
X166399514Y-108969704D01*
X166403322Y-109053349D01*
X166401961Y-109136274D01*
X166396975Y-109220437D01*
X166378969Y-109380460D01*
X166345269Y-109534602D01*
X166289916Y-109689401D01*
X166206950Y-109851394D01*
X166090411Y-110027119D01*
X165934338Y-110223112D01*
X165732772Y-110445911D01*
X165479752Y-110702053D01*
X164795513Y-111340515D01*
X163833940Y-112190796D01*
X160888072Y-114736005D01*
X159510294Y-115932530D01*
X158373725Y-116930406D01*
X156722852Y-118384356D01*
X156421297Y-118644839D01*
X156157872Y-118867505D01*
X155929409Y-119054045D01*
X155732743Y-119206151D01*
X155564705Y-119325517D01*
X155422127Y-119413833D01*
X155359397Y-119446877D01*
X155301844Y-119472792D01*
X155249072Y-119491792D01*
X155200686Y-119504087D01*
X137298446Y-119574090D01*
X136755341Y-119573912D01*
X136490407Y-119568698D01*
X136232368Y-119557016D01*
X136106516Y-119548033D01*
X135983085Y-119536575D01*
X135862309Y-119522354D01*
X135744420Y-119505085D01*
X135629651Y-119484481D01*
X135518234Y-119460257D01*
X135410403Y-119432125D01*
X135306389Y-119399800D01*
X135263901Y-119383768D01*
X135223950Y-119365418D01*
X135186457Y-119344937D01*
X135151345Y-119322509D01*
X135118536Y-119298321D01*
X135087952Y-119272557D01*
X135059515Y-119245402D01*
X135033147Y-119217043D01*
X135008771Y-119187664D01*
X134986308Y-119157450D01*
X134965681Y-119126588D01*
X134946811Y-119095262D01*
X134929621Y-119063658D01*
X134914034Y-119031960D01*
X134899970Y-119000355D01*
X134887352Y-118969027D01*
X134866143Y-118907946D01*
X134849784Y-118850198D01*
X134837651Y-118797268D01*
X134829122Y-118750637D01*
X134820380Y-118682202D01*
X134818574Y-118656755D01*
X135211518Y-98474921D01*
X135023507Y-97522080D01*
X132321863Y-99684222D01*
X131817599Y-100084292D01*
X131357632Y-100440911D01*
X130939062Y-100755032D01*
X130558985Y-101027610D01*
X130382476Y-101148617D01*
X130214502Y-101259595D01*
X130054702Y-101360664D01*
X129902711Y-101451942D01*
X129758168Y-101533548D01*
X129620711Y-101605602D01*
X129489975Y-101668223D01*
X129365599Y-101721530D01*
X129247220Y-101765641D01*
X129134475Y-101800677D01*
X129027002Y-101826756D01*
X128924438Y-101843997D01*
X128826420Y-101852519D01*
X128732586Y-101852442D01*
X128642573Y-101843885D01*
X128556017Y-101826966D01*
X128472558Y-101801805D01*
X128391831Y-101768521D01*
X128313475Y-101727232D01*
X128237126Y-101678059D01*
X128162422Y-101621121D01*
X128089000Y-101556535D01*
X128016498Y-101484422D01*
X127944553Y-101404901D01*
X127901425Y-101325136D01*
X127855586Y-101184612D01*
X127757390Y-100734938D01*
X127653198Y-100083186D01*
X127546242Y-99256662D01*
X127439756Y-98282673D01*
X127336974Y-97188525D01*
X127241129Y-96001525D01*
X127155454Y-94748979D01*
X126435085Y-83070108D01*
X126364837Y-81841139D01*
X126313327Y-80740782D01*
X126282412Y-79762057D01*
X126275256Y-79316125D01*
X126273944Y-78897984D01*
X126278707Y-78506762D01*
X126289778Y-78141586D01*
X126307388Y-77801583D01*
X126331769Y-77485881D01*
X126363152Y-77193608D01*
X126401770Y-76923892D01*
X126447855Y-76675859D01*
X126501638Y-76448638D01*
X126563350Y-76241356D01*
X126633225Y-76053141D01*
X126711493Y-75883120D01*
X126798386Y-75730421D01*
X126894136Y-75594172D01*
X126998976Y-75473499D01*
X127113136Y-75367532D01*
X127236849Y-75275396D01*
X127370346Y-75196221D01*
X127513859Y-75129133D01*
X127667621Y-75073260D01*
X127831862Y-75027730D01*
X128006814Y-74991670D01*
X128192710Y-74964208D01*
X128389781Y-74944472D01*
X128598259Y-74931588D01*
X129800000Y-75100000D01*
M02*
