%TF.GenerationSoftware,KiCad,Pcbnew,8.0.5*%
%TF.CreationDate,2024-10-10T15:52:27-04:00*%
%TF.ProjectId,MovieMarqueeSAO,4d6f7669-654d-4617-9271-75656553414f,rev?*%
%TF.SameCoordinates,Original*%
%TF.FileFunction,Copper,L2,Bot*%
%TF.FilePolarity,Positive*%
%FSLAX46Y46*%
G04 Gerber Fmt 4.6, Leading zero omitted, Abs format (unit mm)*
G04 Created by KiCad (PCBNEW 8.0.5) date 2024-10-10 15:52:27*
%MOMM*%
%LPD*%
G01*
G04 APERTURE LIST*
%TA.AperFunction,ComponentPad*%
%ADD10O,1.700000X1.700000*%
%TD*%
%TA.AperFunction,ComponentPad*%
%ADD11R,1.700000X1.700000*%
%TD*%
%TA.AperFunction,ViaPad*%
%ADD12C,0.350000*%
%TD*%
%TA.AperFunction,Conductor*%
%ADD13C,0.500000*%
%TD*%
G04 APERTURE END LIST*
D10*
%TO.P,J1,4,Pin_4*%
%TO.N,unconnected-(J1-Pin_4-Pad4)*%
X139800000Y-116700000D03*
%TO.P,J1,3,Pin_3*%
%TO.N,GND*%
X137260000Y-116700000D03*
%TO.P,J1,2,Pin_2*%
%TO.N,unconnected-(J1-Pin_2-Pad2)*%
X139800000Y-114160000D03*
D11*
%TO.P,J1,1,Pin_1*%
%TO.N,+3.3V*%
X137260000Y-114160000D03*
%TD*%
D12*
%TO.N,LEDp_out*%
X138400000Y-104700000D03*
%TO.N,Net-(Q1-B)*%
X140700000Y-111800000D03*
X148400000Y-116300000D03*
%TO.N,+3.3V*%
X148000000Y-115600000D03*
X141800000Y-106700000D03*
X136300000Y-108100000D03*
%TO.N,LEDp_out*%
X149300000Y-80400000D03*
X161400000Y-105800000D03*
X161900000Y-111500000D03*
X156200000Y-116300000D03*
X150400000Y-114000000D03*
X144500000Y-105600000D03*
X138900000Y-99200000D03*
X131900000Y-97200000D03*
X129000000Y-95200000D03*
X128100000Y-87400000D03*
X127700000Y-79700000D03*
X132700000Y-77600000D03*
X141200000Y-78700000D03*
X145900000Y-85700000D03*
X150600000Y-92800000D03*
X155900000Y-99300000D03*
%TO.N,+3.3V*%
X141700000Y-102400000D03*
X147400000Y-109000000D03*
X153100000Y-115600000D03*
X159100000Y-114600000D03*
X164700000Y-109100000D03*
X159200000Y-102200000D03*
X153700000Y-95700000D03*
X148000000Y-89300000D03*
X149200000Y-83300000D03*
X145700000Y-79700000D03*
X137000000Y-77900000D03*
X128400000Y-75900000D03*
X127900000Y-83400000D03*
X128300000Y-91200000D03*
X128700000Y-99400000D03*
X135900000Y-95600000D03*
%TD*%
D13*
%TO.N,LEDp_out*%
X129628521Y-95200000D02*
X129000000Y-95200000D01*
X132700000Y-78202508D02*
X132700000Y-77600000D01*
X161000000Y-106200000D02*
X161400000Y-105800000D01*
X150200000Y-93200000D02*
X150600000Y-92800000D01*
X155414779Y-99885221D02*
X155414779Y-99785221D01*
X155414779Y-99785221D02*
X155900000Y-99300000D01*
X161088850Y-110888850D02*
X160816978Y-111116978D01*
X160816978Y-111116978D02*
X156007148Y-115152903D01*
X161500000Y-111100000D02*
X160833956Y-111100000D01*
X160833956Y-111100000D02*
X160816978Y-111116978D01*
X161500000Y-111100000D02*
X161500000Y-110547690D01*
X161500000Y-110547690D02*
X161523845Y-110523845D01*
X161900000Y-111500000D02*
X161500000Y-111100000D01*
X161500000Y-111100000D02*
X161300000Y-111100000D01*
X155500000Y-115600000D02*
X156200000Y-116300000D01*
X141100000Y-100500000D02*
X141302445Y-100297555D01*
X138300000Y-103300000D02*
X141100000Y-100500000D01*
X144446116Y-103213935D02*
X141906993Y-100293007D01*
X141906993Y-100293007D02*
X141302445Y-99597555D01*
X141100000Y-100500000D02*
X141306993Y-100293007D01*
X141306993Y-100293007D02*
X141906993Y-100293007D01*
X141302445Y-99597555D02*
X140232861Y-98367139D01*
X138400000Y-104700000D02*
X138300000Y-104600000D01*
X138300000Y-104600000D02*
X138300000Y-103300000D01*
X141302445Y-100297555D02*
X141302445Y-99597555D01*
X134369929Y-94390122D02*
X131949016Y-96149016D01*
X131949016Y-96149016D02*
X131369824Y-96569824D01*
X131669824Y-96969824D02*
X131669824Y-96428208D01*
X131669824Y-96428208D02*
X131949016Y-96149016D01*
X131369824Y-96969824D02*
X131669824Y-96969824D01*
X131669824Y-96969824D02*
X131900000Y-97200000D01*
X148243453Y-81526476D02*
X148243453Y-81456547D01*
X148243453Y-81456547D02*
X149300000Y-80400000D01*
%TO.N,Net-(Q1-B)*%
X140700000Y-111900000D02*
X145200000Y-116400000D01*
X140700000Y-111800000D02*
X140700000Y-111900000D01*
X145200000Y-116400000D02*
X148300000Y-116400000D01*
X148300000Y-116400000D02*
X148400000Y-116300000D01*
%TO.N,LEDp_out*%
X150400000Y-114000000D02*
X151750000Y-112650000D01*
X151750000Y-112650000D02*
X151963324Y-112436676D01*
X154769929Y-115090122D02*
X152463324Y-112436676D01*
X151963324Y-112436676D02*
X152463324Y-112436676D01*
X149767839Y-93632161D02*
X150041592Y-93958408D01*
X150041592Y-93958408D02*
X155014779Y-99885221D01*
X150200000Y-93200000D02*
X150041592Y-93358408D01*
X150041592Y-93358408D02*
X150041592Y-93958408D01*
X150200000Y-93200000D02*
X149767839Y-93632161D01*
X145571386Y-88631024D02*
X149448460Y-93251540D01*
X149448460Y-93251540D02*
X149767839Y-93632161D01*
X150200000Y-93200000D02*
X150050000Y-93350000D01*
X150050000Y-93350000D02*
X149546920Y-93350000D01*
X149546920Y-93350000D02*
X149448460Y-93251540D01*
X145300000Y-85700000D02*
X145000000Y-85700000D01*
X145300000Y-85700000D02*
X145000000Y-85400000D01*
X145900000Y-85700000D02*
X145300000Y-85700000D01*
X144813151Y-85213151D02*
X145175373Y-84875373D01*
X145175373Y-84875373D02*
X147891114Y-82342904D01*
X145000000Y-85400000D02*
X145000000Y-85050746D01*
X145000000Y-85050746D02*
X145175373Y-84875373D01*
X144700000Y-85700000D02*
X144287342Y-85700000D01*
X145000000Y-85700000D02*
X144700000Y-85700000D01*
X144235836Y-87256029D02*
X144235836Y-86200000D01*
X144235836Y-86200000D02*
X144235836Y-85751506D01*
X144700000Y-85700000D02*
X144700000Y-85735836D01*
X144700000Y-85735836D02*
X144235836Y-86200000D01*
X144235836Y-85751506D02*
X144813151Y-85213151D01*
X145000000Y-85700000D02*
X145000000Y-85400000D01*
X145000000Y-85400000D02*
X144813151Y-85213151D01*
X144287342Y-85700000D02*
X144235836Y-85751506D01*
X148243453Y-81526476D02*
X147806283Y-81526476D01*
X147806283Y-81526476D02*
X147769929Y-81490122D01*
X148243453Y-81526476D02*
X147969929Y-81800000D01*
X147969929Y-81800000D02*
X147969929Y-82253767D01*
X147769929Y-81490122D02*
X141200000Y-80213056D01*
X141200000Y-80213056D02*
X140600000Y-80096428D01*
X141200000Y-78700000D02*
X141200000Y-80213056D01*
X140600000Y-80096428D02*
X136873868Y-79372141D01*
X141200000Y-78700000D02*
X141200000Y-79496428D01*
X141200000Y-79496428D02*
X140600000Y-80096428D01*
X136873868Y-79372141D02*
X133000000Y-78619136D01*
X133000000Y-78619136D02*
X132400000Y-78502508D01*
X132700000Y-78319136D02*
X133000000Y-78619136D01*
X132400000Y-78502508D02*
X130114425Y-78058236D01*
X132700000Y-78202508D02*
X132400000Y-78502508D01*
X129572573Y-86900000D02*
X129210960Y-80000000D01*
X129210960Y-80000000D02*
X129189606Y-79592547D01*
X128689606Y-79700000D02*
X128744803Y-79644803D01*
X128744803Y-79644803D02*
X128855763Y-79644803D01*
X128855763Y-79644803D02*
X129210960Y-80000000D01*
X129189606Y-79592547D02*
X129189606Y-79200000D01*
X129189606Y-79200000D02*
X129189606Y-78070445D01*
X127700000Y-79700000D02*
X128689606Y-79700000D01*
X128689606Y-79700000D02*
X129189606Y-79200000D01*
X129997076Y-95000000D02*
X129609258Y-87600000D01*
X129609258Y-87600000D02*
X129572573Y-86900000D01*
X129072573Y-87400000D02*
X129409258Y-87400000D01*
X129409258Y-87400000D02*
X129609258Y-87600000D01*
X128100000Y-87400000D02*
X129072573Y-87400000D01*
X129072573Y-87400000D02*
X129572573Y-86900000D01*
X130069929Y-96390122D02*
X130028521Y-95600000D01*
X130028521Y-95600000D02*
X129997076Y-95000000D01*
X129628521Y-95200000D02*
X130028521Y-95600000D01*
X129797076Y-95200000D02*
X129997076Y-95000000D01*
X131369824Y-96569824D02*
X130906470Y-96906470D01*
X130906470Y-96906470D02*
X130594323Y-97133259D01*
X131369824Y-96969824D02*
X130969824Y-96969824D01*
X130969824Y-96969824D02*
X130906470Y-96906470D01*
X131369824Y-96969824D02*
X131369824Y-96569824D01*
X138900000Y-99200000D02*
X139600000Y-98500000D01*
X140232861Y-98367139D02*
X139814328Y-97885672D01*
X139600000Y-98500000D02*
X139814328Y-98285672D01*
X139814328Y-98285672D02*
X140151394Y-98285672D01*
X140151394Y-98285672D02*
X140232861Y-98367139D01*
X139814328Y-97885672D02*
X139553884Y-97586065D01*
X139814328Y-98285672D02*
X139814328Y-97885672D01*
X144500000Y-105600000D02*
X145100000Y-105000000D01*
X145348263Y-104251737D02*
X144818145Y-103641906D01*
X145100000Y-105000000D02*
X145348263Y-104751737D01*
X145348263Y-104751737D02*
X145348263Y-104251737D01*
X155500000Y-115600000D02*
X155560051Y-115600000D01*
X155560051Y-115600000D02*
X156007148Y-115152903D01*
X155500000Y-115600000D02*
X155500000Y-115141174D01*
X155500000Y-115141174D02*
X155200000Y-115120196D01*
X155200000Y-115120196D02*
X154769929Y-115090122D01*
X155500000Y-115600000D02*
X155500000Y-115420196D01*
X155500000Y-115420196D02*
X155200000Y-115120196D01*
X155667736Y-115152903D02*
X155500000Y-115141174D01*
X161300000Y-111100000D02*
X161088850Y-110888850D01*
X161523845Y-110523845D02*
X161088850Y-110888850D01*
X162575265Y-109641600D02*
X161523845Y-110523845D01*
X161000000Y-106200000D02*
X160789847Y-106410153D01*
X160489847Y-106410153D02*
X160854851Y-106845149D01*
X160854851Y-106845149D02*
X162575265Y-108895458D01*
X161000000Y-106200000D02*
X160854851Y-106345149D01*
X160854851Y-106345149D02*
X160854851Y-106845149D01*
X155425409Y-100374591D02*
X160489847Y-106410153D01*
X160789847Y-106410153D02*
X160489847Y-106410153D01*
X155014779Y-99885221D02*
X155425409Y-100374591D01*
X155414779Y-99885221D02*
X155414779Y-100363961D01*
X155414779Y-100363961D02*
X155425409Y-100374591D01*
X155414779Y-99885221D02*
X155014779Y-99885221D01*
X144818145Y-103641906D02*
X144446116Y-103213935D01*
X139169929Y-97190122D02*
X138869929Y-96890122D01*
X138869929Y-96890122D02*
X136369929Y-94390122D01*
X139553884Y-97574077D02*
X139169929Y-97190122D01*
X129189606Y-78070445D02*
X129369929Y-77890122D01*
X129369929Y-77890122D02*
X129602482Y-77939552D01*
X130069929Y-96890122D02*
X130069929Y-96390122D01*
X130313066Y-97133259D02*
X130069929Y-96890122D01*
X130594323Y-97133259D02*
X130313066Y-97133259D01*
X136369929Y-94390122D02*
X134369929Y-94390122D01*
X156007148Y-115152903D02*
X155667736Y-115152903D01*
X162575265Y-108895458D02*
X162575265Y-109641600D01*
X129587032Y-77935132D02*
X130152825Y-78045111D01*
X144557199Y-87577392D02*
X144235836Y-87256029D01*
X145889495Y-89002852D02*
X144650362Y-87577392D01*
X147769929Y-81490122D02*
X147810893Y-81531086D01*
%TD*%
%TA.AperFunction,Conductor*%
%TO.N,+3.3V*%
G36*
X138998918Y-77399806D02*
G01*
X139001068Y-77400224D01*
X151369841Y-79993676D01*
X151415746Y-80022185D01*
X151417899Y-80025059D01*
X151826377Y-80596928D01*
X151888375Y-80683725D01*
X151902480Y-80719844D01*
X151998169Y-81485358D01*
X151996420Y-81514317D01*
X151905853Y-81876585D01*
X151882060Y-81916145D01*
X146900001Y-86399998D01*
X146900000Y-86399999D01*
X146800000Y-86700000D01*
X147100006Y-87100008D01*
X147100006Y-87100009D01*
X165190633Y-107889236D01*
X165205008Y-107913356D01*
X165487667Y-108667113D01*
X165494970Y-108686586D01*
X165500000Y-108714325D01*
X165500000Y-109671398D01*
X165481689Y-109721973D01*
X165003702Y-110295556D01*
X164995690Y-110303855D01*
X156170123Y-118200414D01*
X156169088Y-118201324D01*
X156096445Y-118264074D01*
X156095801Y-118264624D01*
X155838539Y-118482079D01*
X155837505Y-118482938D01*
X155618802Y-118661510D01*
X155617169Y-118662808D01*
X155435858Y-118803037D01*
X155433277Y-118804951D01*
X155303189Y-118897359D01*
X155292769Y-118903614D01*
X155116680Y-118991660D01*
X155081350Y-119000000D01*
X137012820Y-119000000D01*
X136987838Y-118995946D01*
X136401389Y-118800463D01*
X136398632Y-118799487D01*
X135629047Y-118510892D01*
X135587990Y-118475756D01*
X135586126Y-118472252D01*
X135508725Y-118317450D01*
X135500402Y-118280491D01*
X135500729Y-118264624D01*
X135532989Y-116700000D01*
X136154785Y-116700000D01*
X136173602Y-116903081D01*
X136173604Y-116903089D01*
X136229417Y-117099249D01*
X136320324Y-117281816D01*
X136320327Y-117281821D01*
X136443233Y-117444576D01*
X136443235Y-117444578D01*
X136443236Y-117444579D01*
X136593959Y-117581981D01*
X136729647Y-117665995D01*
X136767361Y-117689347D01*
X136767365Y-117689349D01*
X136957541Y-117763023D01*
X136957544Y-117763024D01*
X137158024Y-117800500D01*
X137361975Y-117800500D01*
X137361976Y-117800500D01*
X137562456Y-117763024D01*
X137752637Y-117689348D01*
X137926041Y-117581981D01*
X138076764Y-117444579D01*
X138199673Y-117281821D01*
X138290582Y-117099250D01*
X138346397Y-116903083D01*
X138365215Y-116700000D01*
X138694785Y-116700000D01*
X138713602Y-116903081D01*
X138713604Y-116903089D01*
X138769417Y-117099249D01*
X138860324Y-117281816D01*
X138860327Y-117281821D01*
X138983233Y-117444576D01*
X138983235Y-117444578D01*
X138983236Y-117444579D01*
X139133959Y-117581981D01*
X139269647Y-117665995D01*
X139307361Y-117689347D01*
X139307365Y-117689349D01*
X139497541Y-117763023D01*
X139497544Y-117763024D01*
X139698024Y-117800500D01*
X139901975Y-117800500D01*
X139901976Y-117800500D01*
X140102456Y-117763024D01*
X140292637Y-117689348D01*
X140466041Y-117581981D01*
X140616764Y-117444579D01*
X140739673Y-117281821D01*
X140830582Y-117099250D01*
X140886397Y-116903083D01*
X140905215Y-116700000D01*
X140886397Y-116496917D01*
X140830582Y-116300750D01*
X140739673Y-116118179D01*
X140698703Y-116063926D01*
X140616766Y-115955423D01*
X140563993Y-115907314D01*
X140466041Y-115818019D01*
X140390610Y-115771314D01*
X140292638Y-115710652D01*
X140292634Y-115710650D01*
X140102458Y-115636976D01*
X139901976Y-115599500D01*
X139698024Y-115599500D01*
X139497541Y-115636976D01*
X139307365Y-115710650D01*
X139307361Y-115710652D01*
X139133962Y-115818017D01*
X139133955Y-115818022D01*
X138983233Y-115955423D01*
X138860327Y-116118178D01*
X138860324Y-116118183D01*
X138769417Y-116300750D01*
X138713604Y-116496910D01*
X138713602Y-116496918D01*
X138694785Y-116700000D01*
X138365215Y-116700000D01*
X138346397Y-116496917D01*
X138290582Y-116300750D01*
X138199673Y-116118179D01*
X138158703Y-116063926D01*
X138076766Y-115955423D01*
X138023993Y-115907314D01*
X137926041Y-115818019D01*
X137850610Y-115771314D01*
X137752638Y-115710652D01*
X137752634Y-115710650D01*
X137562458Y-115636976D01*
X137361976Y-115599500D01*
X137158024Y-115599500D01*
X136957541Y-115636976D01*
X136767365Y-115710650D01*
X136767361Y-115710652D01*
X136593962Y-115818017D01*
X136593955Y-115818022D01*
X136443233Y-115955423D01*
X136320327Y-116118178D01*
X136320324Y-116118183D01*
X136229417Y-116300750D01*
X136173604Y-116496910D01*
X136173602Y-116496918D01*
X136154785Y-116700000D01*
X135532989Y-116700000D01*
X135603394Y-113285376D01*
X136160000Y-113285376D01*
X136160000Y-113910000D01*
X136826988Y-113910000D01*
X136794075Y-113967007D01*
X136760000Y-114094174D01*
X136760000Y-114225826D01*
X136794075Y-114352993D01*
X136826988Y-114410000D01*
X136160000Y-114410000D01*
X136160000Y-115034623D01*
X136174504Y-115107545D01*
X136174505Y-115107546D01*
X136229759Y-115190240D01*
X136312453Y-115245494D01*
X136312454Y-115245495D01*
X136385376Y-115260000D01*
X137010000Y-115260000D01*
X137010000Y-114593012D01*
X137067007Y-114625925D01*
X137194174Y-114660000D01*
X137325826Y-114660000D01*
X137452993Y-114625925D01*
X137510000Y-114593012D01*
X137510000Y-115260000D01*
X138134624Y-115260000D01*
X138207545Y-115245495D01*
X138207546Y-115245494D01*
X138290240Y-115190240D01*
X138345494Y-115107546D01*
X138345495Y-115107545D01*
X138360000Y-115034623D01*
X138360000Y-114410000D01*
X137693012Y-114410000D01*
X137725925Y-114352993D01*
X137760000Y-114225826D01*
X137760000Y-114160000D01*
X138694785Y-114160000D01*
X138713602Y-114363081D01*
X138713604Y-114363089D01*
X138769417Y-114559249D01*
X138860324Y-114741816D01*
X138860327Y-114741821D01*
X138983233Y-114904576D01*
X138983235Y-114904578D01*
X138983236Y-114904579D01*
X139133959Y-115041981D01*
X139269647Y-115125995D01*
X139307361Y-115149347D01*
X139307365Y-115149349D01*
X139412918Y-115190240D01*
X139497544Y-115223024D01*
X139698024Y-115260500D01*
X139901975Y-115260500D01*
X139901976Y-115260500D01*
X140102456Y-115223024D01*
X140292637Y-115149348D01*
X140466041Y-115041981D01*
X140616764Y-114904579D01*
X140739673Y-114741821D01*
X140830582Y-114559250D01*
X140886397Y-114363083D01*
X140905215Y-114160000D01*
X140886397Y-113956917D01*
X140830582Y-113760750D01*
X140739673Y-113578179D01*
X140616764Y-113415421D01*
X140466041Y-113278019D01*
X140360148Y-113212453D01*
X140292638Y-113170652D01*
X140292634Y-113170650D01*
X140102458Y-113096976D01*
X139901976Y-113059500D01*
X139698024Y-113059500D01*
X139497541Y-113096976D01*
X139307365Y-113170650D01*
X139307361Y-113170652D01*
X139133962Y-113278017D01*
X139133955Y-113278022D01*
X138983233Y-113415423D01*
X138860327Y-113578178D01*
X138860324Y-113578183D01*
X138769417Y-113760750D01*
X138713604Y-113956910D01*
X138713602Y-113956918D01*
X138694785Y-114160000D01*
X137760000Y-114160000D01*
X137760000Y-114094174D01*
X137725925Y-113967007D01*
X137693012Y-113910000D01*
X138360000Y-113910000D01*
X138360000Y-113285376D01*
X138345495Y-113212454D01*
X138345494Y-113212453D01*
X138290240Y-113129759D01*
X138207546Y-113074505D01*
X138207545Y-113074504D01*
X138134624Y-113060000D01*
X137510000Y-113060000D01*
X137510000Y-113726988D01*
X137452993Y-113694075D01*
X137325826Y-113660000D01*
X137194174Y-113660000D01*
X137067007Y-113694075D01*
X137010000Y-113726988D01*
X137010000Y-113060000D01*
X136385376Y-113060000D01*
X136312454Y-113074504D01*
X136312453Y-113074505D01*
X136229759Y-113129759D01*
X136174505Y-113212453D01*
X136174504Y-113212454D01*
X136160000Y-113285376D01*
X135603394Y-113285376D01*
X135635379Y-111734105D01*
X140199500Y-111734105D01*
X140199500Y-111965894D01*
X140233607Y-112093183D01*
X140233608Y-112093187D01*
X140299501Y-112207316D01*
X144799500Y-116707314D01*
X144892686Y-116800500D01*
X145006814Y-116866392D01*
X145134108Y-116900500D01*
X145134110Y-116900500D01*
X148365890Y-116900500D01*
X148365892Y-116900500D01*
X148493186Y-116866392D01*
X148607314Y-116800500D01*
X148800499Y-116607315D01*
X148866392Y-116493186D01*
X148900500Y-116365893D01*
X148900500Y-116234108D01*
X148866392Y-116106814D01*
X148800499Y-115992686D01*
X148800498Y-115992684D01*
X148707315Y-115899501D01*
X148593187Y-115833608D01*
X148593183Y-115833607D01*
X148465894Y-115799500D01*
X148465892Y-115799500D01*
X148334107Y-115799500D01*
X148334106Y-115799500D01*
X148206814Y-115833607D01*
X148206812Y-115833608D01*
X148111019Y-115888916D01*
X148071519Y-115899500D01*
X145440036Y-115899500D01*
X145389256Y-115881018D01*
X145384175Y-115876361D01*
X141200306Y-111692492D01*
X141179860Y-111657079D01*
X141166392Y-111606814D01*
X141100500Y-111492686D01*
X141100499Y-111492685D01*
X141100498Y-111492683D01*
X141007316Y-111399501D01*
X140893187Y-111333608D01*
X140893183Y-111333607D01*
X140765894Y-111299500D01*
X140765892Y-111299500D01*
X140634108Y-111299500D01*
X140634105Y-111299500D01*
X140506816Y-111333607D01*
X140506812Y-111333608D01*
X140392683Y-111399501D01*
X140299501Y-111492683D01*
X140233608Y-111606812D01*
X140233607Y-111606816D01*
X140199500Y-111734105D01*
X135635379Y-111734105D01*
X135900000Y-98900000D01*
X135700000Y-97000000D01*
X135699999Y-96999999D01*
X135200000Y-96700000D01*
X135199999Y-96700000D01*
X134400003Y-96899999D01*
X134400002Y-96899999D01*
X134400000Y-96900000D01*
X133468913Y-97626248D01*
X129427354Y-100778663D01*
X129375946Y-100795321D01*
X129365778Y-100794296D01*
X128829817Y-100704969D01*
X128782767Y-100678390D01*
X128781116Y-100676395D01*
X128752243Y-100640304D01*
X128407859Y-100209824D01*
X128395581Y-100188218D01*
X128104135Y-99411028D01*
X128099261Y-99388245D01*
X128097856Y-99365890D01*
X126900234Y-80303739D01*
X126900121Y-80296242D01*
X126921480Y-79634105D01*
X127199500Y-79634105D01*
X127199500Y-79765894D01*
X127233607Y-79893183D01*
X127233608Y-79893187D01*
X127299501Y-80007316D01*
X127392683Y-80100498D01*
X127392685Y-80100499D01*
X127392686Y-80100500D01*
X127506814Y-80166392D01*
X127634108Y-80200500D01*
X128623714Y-80200500D01*
X128645312Y-80200500D01*
X128696092Y-80218982D01*
X128723112Y-80265782D01*
X128724203Y-80275357D01*
X128976506Y-85089585D01*
X129059255Y-86668536D01*
X129043455Y-86720214D01*
X129036225Y-86728532D01*
X128888398Y-86876361D01*
X128839422Y-86899199D01*
X128832536Y-86899500D01*
X128034105Y-86899500D01*
X127906816Y-86933607D01*
X127906812Y-86933608D01*
X127792683Y-86999501D01*
X127699501Y-87092683D01*
X127633608Y-87206812D01*
X127633607Y-87206816D01*
X127599500Y-87334105D01*
X127599500Y-87465894D01*
X127633607Y-87593183D01*
X127633608Y-87593187D01*
X127699501Y-87707316D01*
X127792683Y-87800498D01*
X127792685Y-87800499D01*
X127792686Y-87800500D01*
X127906814Y-87866392D01*
X128034108Y-87900500D01*
X129006681Y-87900500D01*
X129048851Y-87900500D01*
X129099631Y-87918982D01*
X129126651Y-87965782D01*
X129127742Y-87975357D01*
X129384045Y-92865893D01*
X129475783Y-94616365D01*
X129459983Y-94668043D01*
X129414662Y-94697475D01*
X129396891Y-94699500D01*
X128934105Y-94699500D01*
X128806816Y-94733607D01*
X128806812Y-94733608D01*
X128692683Y-94799501D01*
X128599501Y-94892683D01*
X128533608Y-95006812D01*
X128533607Y-95006816D01*
X128499500Y-95134105D01*
X128499500Y-95265894D01*
X128533607Y-95393183D01*
X128533608Y-95393187D01*
X128599501Y-95507316D01*
X128692683Y-95600498D01*
X128692685Y-95600499D01*
X128692686Y-95600500D01*
X128806814Y-95666392D01*
X128934108Y-95700500D01*
X129388485Y-95700500D01*
X129439265Y-95718982D01*
X129444346Y-95723639D01*
X129517317Y-95796610D01*
X129540155Y-95845586D01*
X129540348Y-95848336D01*
X129569321Y-96401173D01*
X129569429Y-96405308D01*
X129569429Y-96956016D01*
X129603536Y-97083305D01*
X129603537Y-97083309D01*
X129639142Y-97144978D01*
X129669429Y-97197436D01*
X129912566Y-97440573D01*
X130005752Y-97533759D01*
X130119880Y-97599651D01*
X130247174Y-97633759D01*
X130548717Y-97633759D01*
X130561075Y-97634732D01*
X130562980Y-97635033D01*
X130581110Y-97637905D01*
X130614038Y-97634444D01*
X130616438Y-97634192D01*
X130624695Y-97633759D01*
X130660214Y-97633759D01*
X130660215Y-97633759D01*
X130679810Y-97628508D01*
X130691983Y-97626251D01*
X130712172Y-97624130D01*
X130745343Y-97611396D01*
X130753185Y-97608847D01*
X130787509Y-97599651D01*
X130805076Y-97589507D01*
X130816249Y-97584176D01*
X130835203Y-97576902D01*
X130863948Y-97556016D01*
X130870879Y-97551517D01*
X130880294Y-97546081D01*
X130901637Y-97533759D01*
X130915982Y-97519412D01*
X130925405Y-97511365D01*
X130930610Y-97507584D01*
X130950046Y-97493463D01*
X130961129Y-97485411D01*
X131007563Y-97470324D01*
X131303932Y-97470324D01*
X131429788Y-97470324D01*
X131480568Y-97488806D01*
X131485638Y-97493452D01*
X131592686Y-97600500D01*
X131706814Y-97666392D01*
X131834108Y-97700500D01*
X131834110Y-97700500D01*
X131965890Y-97700500D01*
X131965892Y-97700500D01*
X132093186Y-97666392D01*
X132207314Y-97600500D01*
X132300500Y-97507314D01*
X132366392Y-97393186D01*
X132400500Y-97265892D01*
X132400500Y-97134108D01*
X132366392Y-97006814D01*
X132300500Y-96892686D01*
X132300499Y-96892685D01*
X132300498Y-96892683D01*
X132193463Y-96785648D01*
X132170625Y-96736672D01*
X132170324Y-96729787D01*
X132170324Y-96668244D01*
X132188806Y-96617464D01*
X132193453Y-96612392D01*
X132270681Y-96535163D01*
X132280094Y-96527124D01*
X134511784Y-94905709D01*
X134558219Y-94890622D01*
X136129893Y-94890622D01*
X136180673Y-94909104D01*
X136185754Y-94913761D01*
X139119991Y-97847998D01*
X139129241Y-97860924D01*
X139130067Y-97860378D01*
X139132921Y-97864691D01*
X139268081Y-98020175D01*
X139287447Y-98070625D01*
X139269853Y-98121720D01*
X139264320Y-98127865D01*
X138499501Y-98892683D01*
X138433608Y-99006812D01*
X138433607Y-99006816D01*
X138399500Y-99134105D01*
X138399500Y-99265894D01*
X138433607Y-99393183D01*
X138433608Y-99393187D01*
X138499501Y-99507316D01*
X138592683Y-99600498D01*
X138592685Y-99600499D01*
X138592686Y-99600500D01*
X138706814Y-99666392D01*
X138834108Y-99700500D01*
X138834110Y-99700500D01*
X138965890Y-99700500D01*
X138965892Y-99700500D01*
X139093186Y-99666392D01*
X139207314Y-99600500D01*
X139914828Y-98892984D01*
X139963802Y-98870148D01*
X140015999Y-98884134D01*
X140030309Y-98897018D01*
X140782567Y-99762392D01*
X140801933Y-99812842D01*
X140801945Y-99814221D01*
X140801945Y-100057519D01*
X140783463Y-100108299D01*
X140778806Y-100113380D01*
X137992686Y-102899500D01*
X137946093Y-102946093D01*
X137899500Y-102992685D01*
X137833608Y-103106812D01*
X137833607Y-103106816D01*
X137799500Y-103234105D01*
X137799500Y-104665894D01*
X137833607Y-104793183D01*
X137833608Y-104793187D01*
X137899501Y-104907316D01*
X138092682Y-105100497D01*
X138092684Y-105100498D01*
X138092685Y-105100499D01*
X138206814Y-105166392D01*
X138334107Y-105200500D01*
X138334109Y-105200500D01*
X138465890Y-105200500D01*
X138465892Y-105200500D01*
X138593186Y-105166392D01*
X138707314Y-105100499D01*
X138800499Y-105007314D01*
X138866392Y-104893186D01*
X138900500Y-104765892D01*
X138900500Y-104634107D01*
X138866392Y-104506814D01*
X138866391Y-104506812D01*
X138811084Y-104411017D01*
X138800500Y-104371517D01*
X138800500Y-103540036D01*
X138818982Y-103489256D01*
X138823639Y-103484175D01*
X141491169Y-100816646D01*
X141540145Y-100793808D01*
X141547030Y-100793507D01*
X141642899Y-100793507D01*
X141693679Y-100811989D01*
X141702521Y-100820678D01*
X143860786Y-103303479D01*
X144067487Y-103541261D01*
X144442886Y-103973109D01*
X144697713Y-104266254D01*
X144828385Y-104416574D01*
X144847751Y-104467024D01*
X144847763Y-104468403D01*
X144847763Y-104511701D01*
X144829281Y-104562481D01*
X144824624Y-104567562D01*
X144792686Y-104599500D01*
X144099501Y-105292683D01*
X144033608Y-105406812D01*
X144033607Y-105406816D01*
X143999500Y-105534105D01*
X143999500Y-105665894D01*
X144033607Y-105793183D01*
X144033608Y-105793187D01*
X144099501Y-105907316D01*
X144192683Y-106000498D01*
X144192685Y-106000499D01*
X144192686Y-106000500D01*
X144306814Y-106066392D01*
X144434108Y-106100500D01*
X144434110Y-106100500D01*
X144565890Y-106100500D01*
X144565892Y-106100500D01*
X144693186Y-106066392D01*
X144807314Y-106000500D01*
X145500500Y-105307314D01*
X145748763Y-105059051D01*
X145814655Y-104944923D01*
X145848763Y-104817629D01*
X145848763Y-104685844D01*
X145848763Y-104271975D01*
X145848955Y-104266464D01*
X145848970Y-104266254D01*
X145852140Y-104220918D01*
X145850214Y-104211008D01*
X145848763Y-104195935D01*
X145848763Y-104185846D01*
X145848763Y-104185845D01*
X145836946Y-104141744D01*
X145835705Y-104136369D01*
X145826995Y-104091555D01*
X145825087Y-104087644D01*
X145822569Y-104082483D01*
X145817266Y-104068299D01*
X145814655Y-104058551D01*
X145791824Y-104019006D01*
X145789238Y-104014144D01*
X145769224Y-103973109D01*
X145769221Y-103973105D01*
X145762601Y-103965489D01*
X145753811Y-103953166D01*
X145748763Y-103944423D01*
X145716469Y-103912129D01*
X145712722Y-103908111D01*
X145239107Y-103363279D01*
X145239107Y-103363278D01*
X144780619Y-102835848D01*
X144780618Y-102835847D01*
X144780616Y-102835845D01*
X144780616Y-102835844D01*
X142327954Y-100014379D01*
X142327954Y-100014378D01*
X142324897Y-100010862D01*
X142321328Y-100006755D01*
X142312539Y-99994432D01*
X142310047Y-99990117D01*
X142307493Y-99985693D01*
X142275204Y-99953404D01*
X142271457Y-99949386D01*
X141716781Y-99311306D01*
X141707991Y-99298981D01*
X141702945Y-99290241D01*
X141702944Y-99290240D01*
X141702943Y-99290238D01*
X141670668Y-99257963D01*
X141666909Y-99253933D01*
X141649672Y-99234105D01*
X141636948Y-99219468D01*
X141636947Y-99219467D01*
X140940925Y-98418784D01*
X140647199Y-98080891D01*
X140638406Y-98068563D01*
X140633361Y-98059825D01*
X140601069Y-98027533D01*
X140597323Y-98023516D01*
X140594419Y-98020175D01*
X140567364Y-97989052D01*
X140567363Y-97989051D01*
X140228666Y-97599424D01*
X140219873Y-97587096D01*
X140214828Y-97578358D01*
X140182536Y-97546066D01*
X140178790Y-97542048D01*
X140147927Y-97506545D01*
X140147925Y-97506543D01*
X139988835Y-97323530D01*
X139980042Y-97311204D01*
X139954381Y-97266759D01*
X139477243Y-96789622D01*
X139177243Y-96489622D01*
X136677245Y-93989623D01*
X136563116Y-93923730D01*
X136563112Y-93923729D01*
X136435823Y-93889622D01*
X136435821Y-93889622D01*
X134415536Y-93889622D01*
X134403178Y-93888649D01*
X134383144Y-93885476D01*
X134347816Y-93889189D01*
X134339559Y-93889622D01*
X134304037Y-93889622D01*
X134304036Y-93889622D01*
X134304029Y-93889623D01*
X134284439Y-93894871D01*
X134272259Y-93897129D01*
X134252081Y-93899250D01*
X134218914Y-93911981D01*
X134211055Y-93914534D01*
X134176746Y-93923728D01*
X134159171Y-93933874D01*
X134147992Y-93939206D01*
X134129051Y-93946478D01*
X134129046Y-93946480D01*
X134100309Y-93967358D01*
X134093380Y-93971858D01*
X134062616Y-93989621D01*
X134062615Y-93989621D01*
X134048266Y-94003969D01*
X134038844Y-94012015D01*
X131679399Y-95726250D01*
X131672466Y-95730753D01*
X131641700Y-95748516D01*
X131627352Y-95762864D01*
X131617996Y-95770862D01*
X131617275Y-95771387D01*
X131617208Y-95771436D01*
X131128947Y-96126179D01*
X131128945Y-96126181D01*
X131100204Y-96147061D01*
X131093273Y-96151562D01*
X131062508Y-96169324D01*
X131048161Y-96183671D01*
X131038738Y-96191718D01*
X130695964Y-96440758D01*
X130644018Y-96455654D01*
X130594651Y-96433674D01*
X130570962Y-96385104D01*
X130570637Y-96380972D01*
X130570537Y-96379060D01*
X130570429Y-96374934D01*
X130570429Y-96324230D01*
X130570428Y-96324226D01*
X130569140Y-96319418D01*
X130566555Y-96303103D01*
X130560526Y-96188063D01*
X130529129Y-95588946D01*
X130529021Y-95584812D01*
X130529021Y-95534107D01*
X130529020Y-95534103D01*
X130527732Y-95529295D01*
X130525147Y-95512977D01*
X130524121Y-95493388D01*
X130524119Y-95493384D01*
X130497684Y-94988944D01*
X130497576Y-94984810D01*
X130497576Y-94934107D01*
X130497575Y-94934103D01*
X130496287Y-94929295D01*
X130493702Y-94912977D01*
X130493442Y-94908004D01*
X130493441Y-94908003D01*
X130493321Y-94905710D01*
X130492676Y-94893389D01*
X130492674Y-94893385D01*
X130109866Y-87588945D01*
X130109758Y-87584810D01*
X130109758Y-87534108D01*
X130108469Y-87529299D01*
X130105884Y-87512969D01*
X130105624Y-87508004D01*
X130073181Y-86888946D01*
X130073073Y-86884812D01*
X130073073Y-86834107D01*
X130073072Y-86834103D01*
X130071784Y-86829295D01*
X130069199Y-86812977D01*
X130068173Y-86793389D01*
X130068171Y-86793385D01*
X129727867Y-80299958D01*
X129711568Y-79988945D01*
X129711460Y-79984810D01*
X129711460Y-79934107D01*
X129711459Y-79934105D01*
X129710170Y-79929292D01*
X129707586Y-79912982D01*
X129707326Y-79908004D01*
X129707325Y-79908002D01*
X129690214Y-79581506D01*
X129690106Y-79577372D01*
X129690106Y-78560870D01*
X129708588Y-78510090D01*
X129755388Y-78483070D01*
X129784179Y-78483320D01*
X129873848Y-78500750D01*
X129893403Y-78507294D01*
X129954243Y-78536968D01*
X132232115Y-78979741D01*
X132232121Y-78979743D01*
X132239817Y-78981239D01*
X132239819Y-78981240D01*
X132284664Y-78989957D01*
X132289985Y-78991185D01*
X132334108Y-79003008D01*
X132344197Y-79003008D01*
X132359271Y-79004459D01*
X132834539Y-79096841D01*
X132834556Y-79096845D01*
X132884632Y-79106578D01*
X132890007Y-79107819D01*
X132905602Y-79111997D01*
X132934107Y-79119636D01*
X132944197Y-79119636D01*
X132959270Y-79121086D01*
X136713685Y-79850872D01*
X136713687Y-79850873D01*
X140439817Y-80575159D01*
X140439819Y-80575160D01*
X140484664Y-80583877D01*
X140489985Y-80585105D01*
X140534108Y-80596928D01*
X140544197Y-80596928D01*
X140559270Y-80598378D01*
X141039817Y-80691787D01*
X141039819Y-80691788D01*
X141069966Y-80697647D01*
X141084643Y-80700501D01*
X141090010Y-80701739D01*
X141134108Y-80713556D01*
X141144197Y-80713556D01*
X141159270Y-80715006D01*
X146819214Y-81815189D01*
X147405503Y-81929152D01*
X147451824Y-81956985D01*
X147469429Y-82006701D01*
X147469429Y-82017432D01*
X147450947Y-82068212D01*
X147444307Y-82075209D01*
X144882319Y-84464302D01*
X144868718Y-84474366D01*
X144868058Y-84474872D01*
X144828616Y-84514314D01*
X144826634Y-84516227D01*
X144790025Y-84550365D01*
X144789990Y-84550400D01*
X144520096Y-84802080D01*
X144506446Y-84812183D01*
X144505834Y-84812653D01*
X144466399Y-84852087D01*
X144464417Y-84854001D01*
X144004074Y-85283278D01*
X143989702Y-85293913D01*
X143980031Y-85299497D01*
X143980027Y-85299500D01*
X143980027Y-85299501D01*
X143928522Y-85351006D01*
X143928521Y-85351007D01*
X143889080Y-85390446D01*
X143887100Y-85392358D01*
X143846306Y-85430400D01*
X143845758Y-85431066D01*
X143835836Y-85443539D01*
X143835337Y-85444190D01*
X143807450Y-85492489D01*
X143806032Y-85494849D01*
X143776469Y-85542161D01*
X143776135Y-85542894D01*
X143769739Y-85557604D01*
X143769445Y-85558316D01*
X143755008Y-85612192D01*
X143754249Y-85614840D01*
X143737938Y-85668191D01*
X143737804Y-85668993D01*
X143735445Y-85684786D01*
X143735336Y-85685617D01*
X143735336Y-85741376D01*
X143735288Y-85744133D01*
X143733340Y-85799890D01*
X143733422Y-85800741D01*
X143735336Y-85817533D01*
X143735336Y-87321923D01*
X143769443Y-87449212D01*
X143769444Y-87449216D01*
X143835337Y-87563345D01*
X144249882Y-87977890D01*
X144249884Y-87977891D01*
X144249885Y-87977892D01*
X144364013Y-88043784D01*
X144377976Y-88047525D01*
X144417151Y-88072003D01*
X144768318Y-88475974D01*
X145332537Y-89125034D01*
X145333432Y-89126083D01*
X149022700Y-93522779D01*
X149022701Y-93522781D01*
X149032467Y-93534420D01*
X149040365Y-93545699D01*
X149047960Y-93558854D01*
X149076670Y-93587564D01*
X149081305Y-93592622D01*
X149338597Y-93899250D01*
X149351840Y-93915032D01*
X149359736Y-93926309D01*
X149367336Y-93939472D01*
X149367338Y-93939474D01*
X149367339Y-93939475D01*
X149396050Y-93968186D01*
X149400685Y-93973244D01*
X149414428Y-93989622D01*
X149612852Y-94226095D01*
X149612851Y-94226095D01*
X149612852Y-94226096D01*
X149625598Y-94241286D01*
X149633492Y-94252559D01*
X149641092Y-94265722D01*
X149669796Y-94294426D01*
X149674443Y-94299497D01*
X154589018Y-100156459D01*
X154589019Y-100156460D01*
X154589020Y-100156461D01*
X154589021Y-100156463D01*
X154598786Y-100168101D01*
X154606684Y-100179380D01*
X154614279Y-100192535D01*
X154642983Y-100221239D01*
X154647630Y-100226310D01*
X154995011Y-100640304D01*
X155002907Y-100651580D01*
X155014280Y-100671276D01*
X155053603Y-100710599D01*
X155058260Y-100715680D01*
X155195313Y-100879013D01*
X159983359Y-106585185D01*
X160073854Y-106693032D01*
X160081751Y-106704311D01*
X160089347Y-106717467D01*
X160118053Y-106746173D01*
X160122688Y-106751231D01*
X160148796Y-106782345D01*
X160148797Y-106782345D01*
X160154005Y-106788552D01*
X160154009Y-106788557D01*
X160426111Y-107112836D01*
X160426110Y-107112836D01*
X160426111Y-107112837D01*
X160438857Y-107128027D01*
X160446751Y-107139300D01*
X160454351Y-107152463D01*
X160483061Y-107181173D01*
X160487707Y-107186244D01*
X162056282Y-109055597D01*
X162074765Y-109106376D01*
X162074765Y-109371374D01*
X162056283Y-109422154D01*
X162046545Y-109431892D01*
X161240965Y-110107851D01*
X161229689Y-110115746D01*
X161216533Y-110123342D01*
X161216529Y-110123345D01*
X161192689Y-110147186D01*
X161192678Y-110147198D01*
X161187814Y-110152060D01*
X161182748Y-110156701D01*
X161166919Y-110169985D01*
X161166915Y-110169989D01*
X160805971Y-110472855D01*
X160794698Y-110480749D01*
X160781535Y-110488349D01*
X160781535Y-110488350D01*
X160752826Y-110517058D01*
X160747746Y-110521712D01*
X160561516Y-110677978D01*
X160550237Y-110685876D01*
X160526643Y-110699497D01*
X160480961Y-110745179D01*
X160475881Y-110749834D01*
X155847007Y-114633921D01*
X155796227Y-114652403D01*
X155687983Y-114652403D01*
X155682472Y-114652211D01*
X155590572Y-114645784D01*
X155575640Y-114643285D01*
X155565896Y-114640674D01*
X155565892Y-114640674D01*
X155520241Y-114640674D01*
X155514731Y-114640482D01*
X155469181Y-114637297D01*
X155469180Y-114637297D01*
X155290572Y-114624807D01*
X155275637Y-114622307D01*
X155265894Y-114619696D01*
X155265892Y-114619696D01*
X155220240Y-114619696D01*
X155214729Y-114619504D01*
X155169182Y-114616319D01*
X155169181Y-114616319D01*
X155169179Y-114616318D01*
X155044293Y-114607585D01*
X154994926Y-114585604D01*
X154990182Y-114580606D01*
X154890897Y-114466392D01*
X152877662Y-112150428D01*
X152868869Y-112138100D01*
X152863824Y-112129362D01*
X152831532Y-112097070D01*
X152827785Y-112093052D01*
X152797827Y-112058589D01*
X152789456Y-112052942D01*
X152777775Y-112043313D01*
X152770638Y-112036176D01*
X152770637Y-112036175D01*
X152770636Y-112036174D01*
X152731096Y-112013345D01*
X152726422Y-112010425D01*
X152688570Y-111984894D01*
X152679023Y-111981606D01*
X152665254Y-111975331D01*
X152656511Y-111970284D01*
X152656512Y-111970284D01*
X152612402Y-111958465D01*
X152607138Y-111956855D01*
X152596170Y-111953079D01*
X152563972Y-111941992D01*
X152563964Y-111941991D01*
X152553901Y-111941287D01*
X152538976Y-111938790D01*
X152529219Y-111936176D01*
X152529216Y-111936176D01*
X152483563Y-111936176D01*
X152478053Y-111935984D01*
X152459171Y-111934663D01*
X152432505Y-111932799D01*
X152432504Y-111932799D01*
X152422597Y-111934725D01*
X152407523Y-111936176D01*
X151897429Y-111936176D01*
X151770140Y-111970283D01*
X151770136Y-111970284D01*
X151656009Y-112036176D01*
X151562824Y-112129362D01*
X151349500Y-112342686D01*
X151349498Y-112342688D01*
X149999501Y-113692683D01*
X149933608Y-113806812D01*
X149933607Y-113806816D01*
X149899500Y-113934105D01*
X149899500Y-114065894D01*
X149933607Y-114193183D01*
X149933608Y-114193187D01*
X149999501Y-114307316D01*
X150092683Y-114400498D01*
X150092685Y-114400499D01*
X150092686Y-114400500D01*
X150206814Y-114466392D01*
X150334108Y-114500500D01*
X150334110Y-114500500D01*
X150465890Y-114500500D01*
X150465892Y-114500500D01*
X150593186Y-114466392D01*
X150707314Y-114400500D01*
X152050810Y-113057001D01*
X152050815Y-113056998D01*
X152057312Y-113050500D01*
X152057314Y-113050500D01*
X152145291Y-112962522D01*
X152194264Y-112939686D01*
X152246462Y-112953672D01*
X152260772Y-112966556D01*
X154222289Y-115223023D01*
X154348967Y-115368749D01*
X154435426Y-115468209D01*
X154544679Y-115541902D01*
X154669284Y-115584806D01*
X154927452Y-115602858D01*
X154976818Y-115624838D01*
X154998248Y-115661220D01*
X155033607Y-115793183D01*
X155033608Y-115793187D01*
X155099501Y-115907316D01*
X155892682Y-116700497D01*
X155892684Y-116700498D01*
X155892685Y-116700499D01*
X156006814Y-116766392D01*
X156134107Y-116800500D01*
X156134109Y-116800500D01*
X156265890Y-116800500D01*
X156265892Y-116800500D01*
X156393185Y-116766392D01*
X156507314Y-116700499D01*
X156600499Y-116607314D01*
X156666392Y-116493185D01*
X156700500Y-116365892D01*
X156700500Y-116234107D01*
X156666392Y-116106814D01*
X156600499Y-115992685D01*
X156600498Y-115992684D01*
X156600497Y-115992682D01*
X156293700Y-115685885D01*
X156270862Y-115636909D01*
X156284848Y-115584711D01*
X156293694Y-115574169D01*
X156343167Y-115524696D01*
X156348224Y-115520061D01*
X160997353Y-111618982D01*
X161048133Y-111600500D01*
X161234107Y-111600500D01*
X161234108Y-111600500D01*
X161259964Y-111600500D01*
X161310744Y-111618982D01*
X161315814Y-111623628D01*
X161592685Y-111900499D01*
X161706814Y-111966392D01*
X161834107Y-112000500D01*
X161834109Y-112000500D01*
X161965890Y-112000500D01*
X161965892Y-112000500D01*
X162093186Y-111966392D01*
X162207314Y-111900499D01*
X162300499Y-111807314D01*
X162366392Y-111693186D01*
X162400500Y-111565892D01*
X162400500Y-111434107D01*
X162366392Y-111306814D01*
X162300499Y-111192685D01*
X162300498Y-111192684D01*
X162300497Y-111192682D01*
X162023639Y-110915824D01*
X162000801Y-110866848D01*
X162000500Y-110859963D01*
X162000500Y-110814078D01*
X162018982Y-110763298D01*
X162028716Y-110753563D01*
X162858142Y-110057593D01*
X162869419Y-110049696D01*
X162882579Y-110042100D01*
X162911296Y-110013381D01*
X162916341Y-110008758D01*
X162947456Y-109982651D01*
X162956169Y-109970205D01*
X162965017Y-109959661D01*
X162975765Y-109948914D01*
X162996069Y-109913744D01*
X162999768Y-109907940D01*
X163023042Y-109874703D01*
X163023041Y-109874703D01*
X163023045Y-109874699D01*
X163028241Y-109860420D01*
X163034060Y-109847944D01*
X163035431Y-109845567D01*
X163041657Y-109834786D01*
X163052164Y-109795568D01*
X163054229Y-109789018D01*
X163068118Y-109750863D01*
X163069442Y-109735715D01*
X163071833Y-109722164D01*
X163075765Y-109707492D01*
X163075765Y-109666904D01*
X163076066Y-109660017D01*
X163079604Y-109619584D01*
X163079603Y-109619582D01*
X163079604Y-109619580D01*
X163076965Y-109604612D01*
X163075765Y-109590895D01*
X163075765Y-108920762D01*
X163076066Y-108913875D01*
X163079604Y-108873442D01*
X163079603Y-108873440D01*
X163079604Y-108873438D01*
X163076965Y-108858470D01*
X163075765Y-108844753D01*
X163075765Y-108829567D01*
X163075765Y-108829566D01*
X163065261Y-108790365D01*
X163063769Y-108783635D01*
X163056720Y-108743658D01*
X163056720Y-108743656D01*
X163050293Y-108729873D01*
X163045589Y-108716948D01*
X163041657Y-108702272D01*
X163021358Y-108667113D01*
X163018180Y-108661010D01*
X163001025Y-108624219D01*
X162991258Y-108612579D01*
X162983357Y-108601295D01*
X162975765Y-108588144D01*
X162967896Y-108580275D01*
X162947058Y-108559437D01*
X162942412Y-108554367D01*
X161373833Y-106685006D01*
X161355351Y-106634226D01*
X161355351Y-106585185D01*
X161373833Y-106534405D01*
X161378490Y-106529324D01*
X161400500Y-106507314D01*
X161800499Y-106107315D01*
X161866392Y-105993186D01*
X161900500Y-105865893D01*
X161900500Y-105734108D01*
X161866392Y-105606814D01*
X161842819Y-105565984D01*
X161800498Y-105492684D01*
X161707315Y-105399501D01*
X161593187Y-105333608D01*
X161593183Y-105333607D01*
X161465894Y-105299500D01*
X161465892Y-105299500D01*
X161334107Y-105299500D01*
X161334106Y-105299500D01*
X161206814Y-105333607D01*
X161206812Y-105333608D01*
X161092682Y-105399502D01*
X160720000Y-105772185D01*
X160671024Y-105795023D01*
X160618826Y-105781037D01*
X160603621Y-105767104D01*
X160469123Y-105606816D01*
X159098280Y-103973108D01*
X155933761Y-100201780D01*
X155915279Y-100151000D01*
X155915279Y-100025257D01*
X155933761Y-99974477D01*
X155938407Y-99969406D01*
X156300500Y-99607314D01*
X156366392Y-99493186D01*
X156400500Y-99365893D01*
X156400500Y-99234108D01*
X156366392Y-99106814D01*
X156300500Y-98992686D01*
X156300499Y-98992685D01*
X156300498Y-98992683D01*
X156207316Y-98899501D01*
X156093187Y-98833608D01*
X156093183Y-98833607D01*
X155965894Y-98799500D01*
X155965892Y-98799500D01*
X155834107Y-98799500D01*
X155834106Y-98799500D01*
X155706814Y-98833607D01*
X155706812Y-98833608D01*
X155592685Y-98899500D01*
X155244931Y-99247253D01*
X155195955Y-99270090D01*
X155143757Y-99256104D01*
X155128554Y-99242173D01*
X152995418Y-96700000D01*
X150560574Y-93798265D01*
X150542092Y-93747485D01*
X150542092Y-93598444D01*
X150560574Y-93547664D01*
X150565231Y-93542583D01*
X150600500Y-93507314D01*
X151000499Y-93107315D01*
X151066392Y-92993186D01*
X151100500Y-92865893D01*
X151100500Y-92734108D01*
X151066392Y-92606814D01*
X151000499Y-92492686D01*
X151000498Y-92492684D01*
X150907315Y-92399501D01*
X150793187Y-92333608D01*
X150793183Y-92333607D01*
X150665894Y-92299500D01*
X150665892Y-92299500D01*
X150534107Y-92299500D01*
X150534106Y-92299500D01*
X150406814Y-92333607D01*
X150406812Y-92333608D01*
X150292684Y-92399501D01*
X150092685Y-92599500D01*
X149892686Y-92799500D01*
X149865825Y-92826361D01*
X149816849Y-92849199D01*
X149809964Y-92849500D01*
X149801304Y-92849500D01*
X149750524Y-92831018D01*
X149740787Y-92821280D01*
X146327114Y-88753025D01*
X146316627Y-88736877D01*
X146310456Y-88724224D01*
X146094656Y-88475974D01*
X146093761Y-88474925D01*
X145912442Y-88258838D01*
X145912436Y-88258832D01*
X145903672Y-88252696D01*
X145889363Y-88239812D01*
X145718958Y-88043783D01*
X144984865Y-87199305D01*
X144875611Y-87125612D01*
X144801252Y-87100008D01*
X144797718Y-87098791D01*
X144767577Y-87079956D01*
X144759475Y-87071854D01*
X144736637Y-87022878D01*
X144736336Y-87015993D01*
X144736336Y-86440036D01*
X144754818Y-86389256D01*
X144759475Y-86384175D01*
X144920011Y-86223639D01*
X144968987Y-86200801D01*
X144975872Y-86200500D01*
X145965890Y-86200500D01*
X145965892Y-86200500D01*
X146093186Y-86166392D01*
X146207314Y-86100500D01*
X146300500Y-86007314D01*
X146366392Y-85893186D01*
X146400500Y-85765892D01*
X146400500Y-85634108D01*
X146366392Y-85506814D01*
X146358121Y-85492489D01*
X146300498Y-85392683D01*
X146207316Y-85299501D01*
X146093187Y-85233608D01*
X146093183Y-85233607D01*
X145965894Y-85199500D01*
X145965892Y-85199500D01*
X145762216Y-85199500D01*
X145711436Y-85181018D01*
X145684416Y-85134218D01*
X145693800Y-85081000D01*
X145708338Y-85062723D01*
X145933172Y-84853062D01*
X148280645Y-82664008D01*
X148280647Y-82664005D01*
X148280648Y-82664004D01*
X148297767Y-82636606D01*
X148308898Y-82622610D01*
X148370429Y-82561081D01*
X148436321Y-82446953D01*
X148470429Y-82319659D01*
X148470429Y-82040036D01*
X148488911Y-81989256D01*
X148493557Y-81984185D01*
X148643952Y-81833791D01*
X148651068Y-81821467D01*
X148709845Y-81719662D01*
X148712306Y-81710475D01*
X148732750Y-81675062D01*
X149700500Y-80707314D01*
X149766392Y-80593186D01*
X149800500Y-80465893D01*
X149800500Y-80334108D01*
X149766392Y-80206814D01*
X149760939Y-80197370D01*
X149731953Y-80147164D01*
X149700500Y-80092686D01*
X149700499Y-80092685D01*
X149700498Y-80092683D01*
X149607316Y-79999501D01*
X149493187Y-79933608D01*
X149493183Y-79933607D01*
X149365894Y-79899500D01*
X149365892Y-79899500D01*
X149234107Y-79899500D01*
X149234106Y-79899500D01*
X149106814Y-79933607D01*
X149106812Y-79933608D01*
X148992683Y-79999501D01*
X148002248Y-80989936D01*
X147953272Y-81012774D01*
X147931313Y-81011623D01*
X147885286Y-81002676D01*
X147879935Y-81001441D01*
X147835821Y-80989622D01*
X147835818Y-80989622D01*
X147825733Y-80989622D01*
X147810659Y-80988171D01*
X141764426Y-79812900D01*
X141718105Y-79785067D01*
X141700500Y-79735351D01*
X141700500Y-78634110D01*
X141700499Y-78634105D01*
X141680876Y-78560870D01*
X141666392Y-78506814D01*
X141600500Y-78392686D01*
X141600499Y-78392685D01*
X141600498Y-78392683D01*
X141507316Y-78299501D01*
X141393187Y-78233608D01*
X141393183Y-78233607D01*
X141265894Y-78199500D01*
X141265892Y-78199500D01*
X141134108Y-78199500D01*
X141134105Y-78199500D01*
X141006816Y-78233607D01*
X141006812Y-78233608D01*
X140892683Y-78299501D01*
X140799501Y-78392683D01*
X140733608Y-78506812D01*
X140733607Y-78506816D01*
X140699500Y-78634105D01*
X140699500Y-79256390D01*
X140681018Y-79307170D01*
X140676361Y-79312251D01*
X140463970Y-79524642D01*
X140414994Y-79547480D01*
X140393035Y-79546330D01*
X137544785Y-78992686D01*
X137034050Y-78893409D01*
X137030325Y-78892685D01*
X137030320Y-78892683D01*
X133269414Y-78161637D01*
X133228627Y-78139949D01*
X133223639Y-78134961D01*
X133200801Y-78085985D01*
X133200500Y-78079100D01*
X133200500Y-77534110D01*
X133200499Y-77534105D01*
X133166392Y-77406814D01*
X133164353Y-77403283D01*
X133100498Y-77292683D01*
X133007316Y-77199501D01*
X132893187Y-77133608D01*
X132893183Y-77133607D01*
X132765894Y-77099500D01*
X132765892Y-77099500D01*
X132634108Y-77099500D01*
X132634105Y-77099500D01*
X132506816Y-77133607D01*
X132506812Y-77133608D01*
X132392683Y-77199501D01*
X132299501Y-77292683D01*
X132233608Y-77406812D01*
X132233607Y-77406816D01*
X132199500Y-77534105D01*
X132199500Y-77857831D01*
X132181018Y-77908611D01*
X132134218Y-77935631D01*
X132105426Y-77935380D01*
X130393401Y-77602595D01*
X130373844Y-77596051D01*
X130313006Y-77566379D01*
X129624983Y-77432640D01*
X129623633Y-77432365D01*
X129488825Y-77403712D01*
X129484803Y-77402746D01*
X129435823Y-77389622D01*
X129435821Y-77389622D01*
X129430837Y-77389622D01*
X129414414Y-77387896D01*
X129413411Y-77387683D01*
X129409535Y-77386859D01*
X129409534Y-77386859D01*
X129358875Y-77389514D01*
X129354740Y-77389622D01*
X129304031Y-77389622D01*
X129299219Y-77390912D01*
X129282918Y-77393494D01*
X129277936Y-77393755D01*
X129277929Y-77393756D01*
X129229682Y-77409432D01*
X129225720Y-77410606D01*
X129176741Y-77423730D01*
X129172418Y-77426226D01*
X129157350Y-77432935D01*
X129152600Y-77434479D01*
X129152598Y-77434479D01*
X129110056Y-77462106D01*
X129106533Y-77464265D01*
X129062613Y-77489623D01*
X129059089Y-77493148D01*
X129046264Y-77503534D01*
X129042075Y-77506254D01*
X129042073Y-77506256D01*
X129008119Y-77543964D01*
X129005273Y-77546962D01*
X128871180Y-77681055D01*
X128871178Y-77681058D01*
X128789107Y-77763128D01*
X128723214Y-77877257D01*
X128723213Y-77877261D01*
X128689106Y-78004550D01*
X128689106Y-78959964D01*
X128670624Y-79010744D01*
X128665967Y-79015825D01*
X128505431Y-79176361D01*
X128456455Y-79199199D01*
X128449570Y-79199500D01*
X127634105Y-79199500D01*
X127506816Y-79233607D01*
X127506812Y-79233608D01*
X127392683Y-79299501D01*
X127299501Y-79392683D01*
X127233608Y-79506812D01*
X127233607Y-79506816D01*
X127199500Y-79634105D01*
X126921480Y-79634105D01*
X126999520Y-77214878D01*
X127005864Y-77186315D01*
X127586713Y-75831002D01*
X127623702Y-75791612D01*
X127631568Y-75788161D01*
X128379683Y-75507618D01*
X128421356Y-75503828D01*
X138998918Y-77399806D01*
G37*
%TD.AperFunction*%
%TD*%
M02*
