%TF.GenerationSoftware,KiCad,Pcbnew,8.0.5*%
%TF.CreationDate,2024-10-10T15:52:27-04:00*%
%TF.ProjectId,MovieMarqueeSAO,4d6f7669-654d-4617-9271-75656553414f,rev?*%
%TF.SameCoordinates,Original*%
%TF.FileFunction,Soldermask,Top*%
%TF.FilePolarity,Negative*%
%FSLAX46Y46*%
G04 Gerber Fmt 4.6, Leading zero omitted, Abs format (unit mm)*
G04 Created by KiCad (PCBNEW 8.0.5) date 2024-10-10 15:52:27*
%MOMM*%
%LPD*%
G01*
G04 APERTURE LIST*
G04 Aperture macros list*
%AMRoundRect*
0 Rectangle with rounded corners*
0 $1 Rounding radius*
0 $2 $3 $4 $5 $6 $7 $8 $9 X,Y pos of 4 corners*
0 Add a 4 corners polygon primitive as box body*
4,1,4,$2,$3,$4,$5,$6,$7,$8,$9,$2,$3,0*
0 Add four circle primitives for the rounded corners*
1,1,$1+$1,$2,$3*
1,1,$1+$1,$4,$5*
1,1,$1+$1,$6,$7*
1,1,$1+$1,$8,$9*
0 Add four rect primitives between the rounded corners*
20,1,$1+$1,$2,$3,$4,$5,0*
20,1,$1+$1,$4,$5,$6,$7,0*
20,1,$1+$1,$6,$7,$8,$9,0*
20,1,$1+$1,$8,$9,$2,$3,0*%
G04 Aperture macros list end*
%ADD10O,1.700000X1.700000*%
%ADD11R,1.700000X1.700000*%
%ADD12RoundRect,0.218750X-0.002858X-0.336909X0.332287X-0.055689X0.002858X0.336909X-0.332287X0.055689X0*%
%ADD13RoundRect,0.218750X0.002858X0.336909X-0.332287X0.055689X-0.002858X-0.336909X0.332287X-0.055689X0*%
%ADD14RoundRect,0.218750X-0.336909X0.002858X-0.055689X-0.332287X0.336909X-0.002858X0.055689X0.332287X0*%
%ADD15RoundRect,0.200000X0.275000X-0.200000X0.275000X0.200000X-0.275000X0.200000X-0.275000X-0.200000X0*%
%ADD16RoundRect,0.200000X-0.275000X0.200000X-0.275000X-0.200000X0.275000X-0.200000X0.275000X0.200000X0*%
%ADD17RoundRect,0.150000X-0.150000X0.587500X-0.150000X-0.587500X0.150000X-0.587500X0.150000X0.587500X0*%
%ADD18RoundRect,0.150000X-0.587500X-0.150000X0.587500X-0.150000X0.587500X0.150000X-0.587500X0.150000X0*%
%ADD19RoundRect,0.150000X0.587500X0.150000X-0.587500X0.150000X-0.587500X-0.150000X0.587500X-0.150000X0*%
%ADD20RoundRect,0.218750X0.336909X-0.002858X0.055689X0.332287X-0.336909X0.002858X-0.055689X-0.332287X0*%
%ADD21RoundRect,0.218750X0.008902X-0.336803X0.334028X-0.044059X-0.008902X0.336803X-0.334028X0.044059X0*%
%ADD22RoundRect,0.218750X-0.026517X0.335876X-0.335876X0.026517X0.026517X-0.335876X0.335876X-0.026517X0*%
%ADD23RoundRect,0.218750X0.263626X0.209802X-0.165836X0.293281X-0.263626X-0.209802X0.165836X-0.293281X0*%
%ADD24RoundRect,0.218750X-0.263626X-0.209802X0.165836X-0.293281X0.263626X0.209802X-0.165836X0.293281X0*%
%ADD25RoundRect,0.218750X0.259924X0.214371X-0.170929X0.290343X-0.259924X-0.214371X0.170929X-0.290343X0*%
%ADD26RoundRect,0.218750X-0.259924X-0.214371X0.170929X-0.290343X0.259924X0.214371X-0.170929X0.290343X0*%
%ADD27RoundRect,0.218750X0.252393X-0.223189X0.260029X0.214245X-0.252393X0.223189X-0.260029X-0.214245X0*%
%ADD28RoundRect,0.218750X-0.267347X0.205039X-0.244450X-0.231861X0.267347X-0.205039X0.244450X0.231861X0*%
%ADD29RoundRect,0.218750X0.270885X-0.200342X0.240367X0.236092X-0.270885X0.200342X-0.240367X-0.236092X0*%
%ADD30RoundRect,0.218750X-0.270885X0.200342X-0.240367X-0.236092X0.270885X-0.200342X0.240367X0.236092X0*%
%ADD31RoundRect,0.218750X-0.280999X0.185890X-0.227681X-0.248348X0.280999X-0.185890X0.227681X0.248348X0*%
%ADD32RoundRect,0.218750X0.026352X0.335889X-0.327592X0.078733X-0.026352X-0.335889X0.327592X-0.078733X0*%
%ADD33RoundRect,0.218750X-0.020486X-0.336297X0.328917X-0.073003X0.020486X0.336297X-0.328917X0.073003X0*%
%ADD34RoundRect,0.225000X-0.225000X-0.250000X0.225000X-0.250000X0.225000X0.250000X-0.225000X0.250000X0*%
%ADD35RoundRect,0.225000X0.225000X0.250000X-0.225000X0.250000X-0.225000X-0.250000X0.225000X-0.250000X0*%
%ADD36RoundRect,0.150000X0.150000X-0.587500X0.150000X0.587500X-0.150000X0.587500X-0.150000X-0.587500X0*%
G04 APERTURE END LIST*
D10*
%TO.C,J1*%
X139800000Y-116700000D03*
X137260000Y-116700000D03*
X139800000Y-114160000D03*
D11*
X137260000Y-114160000D03*
%TD*%
D12*
%TO.C,D32*%
X158200000Y-115300000D03*
X156993482Y-116312390D03*
%TD*%
D13*
%TO.C,D31*%
X161103259Y-112793805D03*
X159896741Y-113806195D03*
%TD*%
D12*
%TO.C,D30*%
X162800000Y-111300000D03*
X164006518Y-110287610D03*
%TD*%
D14*
%TO.C,D29*%
X162687610Y-106593482D03*
X163700000Y-107800000D03*
%TD*%
D15*
%TO.C,R4*%
X136400000Y-106850000D03*
X136400000Y-105200000D03*
%TD*%
D16*
%TO.C,R3*%
X142600000Y-107750000D03*
X142600000Y-109400000D03*
%TD*%
%TO.C,R2*%
X136400000Y-109350000D03*
X136400000Y-111000000D03*
%TD*%
D15*
%TO.C,R1*%
X146700000Y-115500000D03*
X146700000Y-113850000D03*
%TD*%
D17*
%TO.C,Q4*%
X143900000Y-117600000D03*
X142950000Y-115725000D03*
X144850000Y-115725000D03*
%TD*%
D18*
%TO.C,Q2*%
X142925000Y-111700000D03*
X142925000Y-113600000D03*
X144800000Y-112650000D03*
%TD*%
D19*
%TO.C,Q1*%
X140362500Y-111037500D03*
X140362500Y-109137500D03*
X138487500Y-110087500D03*
%TD*%
D20*
%TO.C,D28*%
X161000000Y-104500000D03*
X159987610Y-103293482D03*
%TD*%
D14*
%TO.C,D27*%
X157293805Y-99896741D03*
X158306195Y-101103259D03*
%TD*%
D20*
%TO.C,D26*%
X155600000Y-97900000D03*
X154587610Y-96693482D03*
%TD*%
D14*
%TO.C,D25*%
X151887610Y-93493482D03*
X152900000Y-94700000D03*
%TD*%
D20*
%TO.C,D24*%
X150000000Y-91400000D03*
X148987610Y-90193482D03*
%TD*%
D14*
%TO.C,D23*%
X146193805Y-87196741D03*
X147206195Y-88403259D03*
%TD*%
D21*
%TO.C,D22*%
X148385227Y-84073063D03*
X147214773Y-85126937D03*
%TD*%
D22*
%TO.C,D21*%
X151156844Y-81543151D03*
X150043156Y-82656849D03*
%TD*%
D23*
%TO.C,D20*%
X148573031Y-80250262D03*
X147026969Y-79949738D03*
%TD*%
D24*
%TO.C,D19*%
X142653938Y-79099476D03*
X144200000Y-79400000D03*
%TD*%
D25*
%TO.C,D18*%
X139875536Y-78400000D03*
X138324464Y-78126504D03*
%TD*%
D26*
%TO.C,D17*%
X134200000Y-77300000D03*
X135751072Y-77573496D03*
%TD*%
D25*
%TO.C,D16*%
X131400000Y-76800000D03*
X129848926Y-76526504D03*
%TD*%
D27*
%TO.C,D15*%
X127772510Y-78674760D03*
X127800000Y-77100000D03*
%TD*%
D28*
%TO.C,D14*%
X127841214Y-82272840D03*
X127758786Y-80700000D03*
%TD*%
D29*
%TO.C,D13*%
X128100000Y-86171162D03*
X127990134Y-84600000D03*
%TD*%
D30*
%TO.C,D12*%
X128200000Y-88600000D03*
X128309866Y-90171162D03*
%TD*%
D29*
%TO.C,D11*%
X128509866Y-93871162D03*
X128400000Y-92300000D03*
%TD*%
D31*
%TO.C,D10*%
X128995972Y-97981630D03*
X128804028Y-96418370D03*
%TD*%
D32*
%TO.C,D9*%
X131274200Y-98674236D03*
X130000000Y-99600000D03*
%TD*%
D33*
%TO.C,D8*%
X133142152Y-97147860D03*
X134400000Y-96200000D03*
%TD*%
D20*
%TO.C,D7*%
X136993805Y-96896740D03*
X138006195Y-98103260D03*
%TD*%
D14*
%TO.C,D6*%
X139787610Y-100093480D03*
X140800000Y-101300000D03*
%TD*%
D20*
%TO.C,D5*%
X143600000Y-104500000D03*
X142587610Y-103293480D03*
%TD*%
D14*
%TO.C,D4*%
X145487610Y-106693480D03*
X146500000Y-107900000D03*
%TD*%
D20*
%TO.C,D3*%
X149300000Y-111100000D03*
X148287610Y-109893480D03*
%TD*%
D14*
%TO.C,D2*%
X152200000Y-114500000D03*
X151187610Y-113293480D03*
%TD*%
D20*
%TO.C,D1*%
X154906195Y-117703260D03*
X153893805Y-116496740D03*
%TD*%
D34*
%TO.C,C2*%
X148274996Y-117399999D03*
X146725004Y-117400001D03*
%TD*%
D35*
%TO.C,C1*%
X138000000Y-103100000D03*
X136450000Y-103100000D03*
%TD*%
D36*
%TO.C,Q3*%
X138500000Y-106975000D03*
X140400000Y-106975000D03*
X139450000Y-105100000D03*
%TD*%
M02*
