M48
; DRILL file {KiCad 8.0.5} date 2024-10-10T15:52:37-0400
; FORMAT={-:-/ absolute / metric / decimal}
; #@! TF.CreationDate,2024-10-10T15:52:37-04:00
; #@! TF.GenerationSoftware,Kicad,Pcbnew,8.0.5
; #@! TF.FileFunction,Plated,1,2,PTH
FMAT,2
METRIC
; #@! TA.AperFunction,Plated,PTH,ViaDrill
T1C0.250
; #@! TA.AperFunction,Plated,PTH,ComponentDrill
T2C1.000
%
G90
G05
T1
X127.7Y-79.7
X127.9Y-83.4
X128.1Y-87.4
X128.3Y-91.2
X128.4Y-75.9
X128.7Y-99.4
X129.0Y-95.2
X131.9Y-97.2
X132.7Y-77.6
X135.9Y-95.6
X136.3Y-108.1
X137.0Y-77.9
X138.4Y-104.7
X138.9Y-99.2
X140.7Y-111.8
X141.2Y-78.7
X141.7Y-102.4
X141.8Y-106.7
X144.5Y-105.6
X145.7Y-79.7
X145.9Y-85.7
X147.4Y-109.0
X148.0Y-89.3
X148.0Y-115.6
X148.4Y-116.3
X149.2Y-83.3
X149.3Y-80.4
X150.4Y-114.0
X150.6Y-92.8
X153.1Y-115.6
X153.7Y-95.7
X155.9Y-99.3
X156.2Y-116.3
X159.1Y-114.6
X159.2Y-102.2
X161.4Y-105.8
X161.9Y-111.5
X164.7Y-109.1
T2
X137.26Y-114.16
X137.26Y-116.7
X139.8Y-114.16
X139.8Y-116.7
M30
