%TF.GenerationSoftware,KiCad,Pcbnew,8.0.5*%
%TF.CreationDate,2024-10-10T15:52:27-04:00*%
%TF.ProjectId,MovieMarqueeSAO,4d6f7669-654d-4617-9271-75656553414f,rev?*%
%TF.SameCoordinates,Original*%
%TF.FileFunction,Legend,Top*%
%TF.FilePolarity,Positive*%
%FSLAX46Y46*%
G04 Gerber Fmt 4.6, Leading zero omitted, Abs format (unit mm)*
G04 Created by KiCad (PCBNEW 8.0.5) date 2024-10-10 15:52:27*
%MOMM*%
%LPD*%
G01*
G04 APERTURE LIST*
%ADD10C,0.000000*%
%ADD11C,0.120000*%
G04 APERTURE END LIST*
D10*
G36*
X131490045Y-77790545D02*
G01*
X133380089Y-78132904D01*
X138896757Y-79212236D01*
X144509894Y-80371422D01*
X146520525Y-80813599D01*
X147556736Y-81074905D01*
X147609835Y-81095027D01*
X147660368Y-81118434D01*
X147708314Y-81145007D01*
X147753650Y-81174627D01*
X147796353Y-81207177D01*
X147836402Y-81242536D01*
X147873773Y-81280587D01*
X147908446Y-81321210D01*
X147940397Y-81364287D01*
X147969605Y-81409700D01*
X147996046Y-81457329D01*
X148019699Y-81507055D01*
X148040541Y-81558761D01*
X148058551Y-81612327D01*
X148073705Y-81667635D01*
X148085982Y-81724565D01*
X148095359Y-81783000D01*
X148101814Y-81842820D01*
X148105325Y-81903907D01*
X148105869Y-81966142D01*
X148103424Y-82029406D01*
X148097968Y-82093581D01*
X148089479Y-82158548D01*
X148077933Y-82224188D01*
X148063310Y-82290383D01*
X148045587Y-82357013D01*
X148024740Y-82423961D01*
X148000749Y-82491106D01*
X147973591Y-82558332D01*
X147943243Y-82625518D01*
X147909684Y-82692546D01*
X147872890Y-82759298D01*
X147824664Y-82836002D01*
X147762304Y-82923920D01*
X147686791Y-83022027D01*
X147599110Y-83129299D01*
X147500243Y-83244710D01*
X147391173Y-83367236D01*
X147272884Y-83495852D01*
X147146357Y-83629533D01*
X146872526Y-83907989D01*
X146577543Y-84194406D01*
X146269273Y-84480584D01*
X146112613Y-84621022D01*
X145955579Y-84758325D01*
X143891054Y-86558872D01*
X150651556Y-94392788D01*
X159277232Y-104234675D01*
X160809610Y-106006332D01*
X161972924Y-107403523D01*
X162707453Y-108376780D01*
X162895260Y-108688974D01*
X162953474Y-108876632D01*
X162944590Y-108988789D01*
X162939134Y-109040580D01*
X162932179Y-109090396D01*
X162923107Y-109138897D01*
X162911300Y-109186746D01*
X162896140Y-109234605D01*
X162877011Y-109283134D01*
X162853293Y-109332996D01*
X162824370Y-109384852D01*
X162789623Y-109439364D01*
X162748436Y-109497193D01*
X162700190Y-109559002D01*
X162644267Y-109625452D01*
X162580051Y-109697204D01*
X162506922Y-109774921D01*
X162424265Y-109859263D01*
X162331460Y-109950893D01*
X162227890Y-110050473D01*
X162112937Y-110158663D01*
X161846414Y-110403523D01*
X161526948Y-110690768D01*
X161149598Y-111025689D01*
X160709423Y-111413581D01*
X159620828Y-112369449D01*
X158617844Y-113242876D01*
X157833023Y-113907593D01*
X157511229Y-114170346D01*
X157230543Y-114391314D01*
X156986488Y-114573962D01*
X156774586Y-114721754D01*
X156590359Y-114838153D01*
X156429330Y-114926624D01*
X156287021Y-114990632D01*
X156158955Y-115033639D01*
X156040654Y-115059111D01*
X155927642Y-115070512D01*
X155815439Y-115071306D01*
X155699569Y-115064956D01*
X155623266Y-115041742D01*
X155518191Y-114981821D01*
X155224833Y-114755748D01*
X154825700Y-114394526D01*
X154326999Y-113905944D01*
X153734936Y-113297791D01*
X153055717Y-112577854D01*
X151460635Y-110833785D01*
X149591400Y-108736045D01*
X147497662Y-106346943D01*
X145229067Y-103728787D01*
X142835266Y-100943884D01*
X136200000Y-93200000D01*
X133410874Y-95534208D01*
X133051711Y-95830224D01*
X132720932Y-96093022D01*
X132416895Y-96323481D01*
X132137960Y-96522481D01*
X131882483Y-96690901D01*
X131648824Y-96829621D01*
X131435341Y-96939519D01*
X131240391Y-97021475D01*
X131062333Y-97076369D01*
X130979126Y-97093942D01*
X130899526Y-97105079D01*
X130823328Y-97109890D01*
X130750327Y-97108485D01*
X130680317Y-97100974D01*
X130613095Y-97087467D01*
X130548453Y-97068073D01*
X130486187Y-97042903D01*
X130426093Y-97012066D01*
X130367964Y-96975673D01*
X130256781Y-96886657D01*
X130150999Y-96776733D01*
X130135697Y-96753583D01*
X130119869Y-96719164D01*
X130086780Y-96617744D01*
X130052023Y-96474938D01*
X130015890Y-96293207D01*
X129940667Y-95822826D01*
X129863446Y-95226304D01*
X129786565Y-94523344D01*
X129712359Y-93733650D01*
X129643166Y-92876925D01*
X129581323Y-91972873D01*
X129061400Y-83543351D01*
X128973514Y-81862085D01*
X128951196Y-81155653D01*
X128945079Y-80531974D01*
X128956501Y-79986009D01*
X128986803Y-79512722D01*
X129037321Y-79107076D01*
X129109396Y-78764034D01*
X129204365Y-78478558D01*
X129323568Y-78245612D01*
X129392675Y-78147264D01*
X129468343Y-78060159D01*
X129550738Y-77983668D01*
X129640028Y-77917161D01*
X129839964Y-77811581D01*
X130069487Y-77738383D01*
X130329938Y-77692530D01*
X130622655Y-77668984D01*
X131490045Y-77790545D01*
G37*
D11*
%TO.C,J1*%
X141130000Y-112830000D02*
X141130000Y-118030000D01*
X138530000Y-115430000D02*
X138530000Y-112830000D01*
X138530000Y-112830000D02*
X141130000Y-112830000D01*
X135930000Y-118030000D02*
X141130000Y-118030000D01*
X135930000Y-115430000D02*
X138530000Y-115430000D01*
X135930000Y-115430000D02*
X135930000Y-118030000D01*
X135930000Y-114160000D02*
X135930000Y-112830000D01*
X135930000Y-112830000D02*
X137260000Y-112830000D01*
%TO.C,D32*%
X157737129Y-114728922D02*
X155986717Y-116197692D01*
X156931614Y-117323776D02*
X158682026Y-115855010D01*
X155986717Y-116197692D02*
X156931614Y-117323776D01*
%TO.C,D31*%
X162110024Y-112908503D02*
X161165127Y-111782419D01*
X161165127Y-111782419D02*
X159414715Y-113251188D01*
X160359615Y-114377273D02*
X162110024Y-112908503D01*
%TO.C,D30*%
X161793235Y-111185302D02*
X162738132Y-112311386D01*
X162738132Y-112311386D02*
X164488544Y-110842617D01*
X163543644Y-109716532D02*
X161793235Y-111185302D01*
%TO.C,D29*%
X162802308Y-105586717D02*
X161676224Y-106531614D01*
X161676224Y-106531614D02*
X163144993Y-108282026D01*
X164271078Y-107337126D02*
X162802308Y-105586717D01*
%TO.C,R4*%
X135877500Y-106262258D02*
X135877500Y-105787742D01*
X136922500Y-106262258D02*
X136922500Y-105787742D01*
%TO.C,R3*%
X143122500Y-108337742D02*
X143122500Y-108812258D01*
X142077500Y-108337742D02*
X142077500Y-108812258D01*
%TO.C,R2*%
X136922500Y-109937742D02*
X136922500Y-110412258D01*
X135877500Y-109937742D02*
X135877500Y-110412258D01*
%TO.C,R1*%
X146177500Y-114912258D02*
X146177500Y-114437742D01*
X147222500Y-114912258D02*
X147222500Y-114437742D01*
%TO.C,Q4*%
X145740000Y-115740000D02*
X145410000Y-115500000D01*
X145740000Y-115260000D01*
X145740000Y-115740000D01*
G36*
X145740000Y-115740000D02*
G01*
X145410000Y-115500000D01*
X145740000Y-115260000D01*
X145740000Y-115740000D01*
G37*
X142340000Y-116662500D02*
X142340000Y-117312500D01*
X142340000Y-116662500D02*
X142340000Y-116012500D01*
X145460000Y-116662500D02*
X145460000Y-117312500D01*
X145460000Y-116662500D02*
X145460000Y-116012500D01*
%TO.C,Q2*%
X143862500Y-111090000D02*
X143212500Y-111090000D01*
X143862500Y-111090000D02*
X144512500Y-111090000D01*
X143862500Y-114210000D02*
X143212500Y-114210000D01*
X143862500Y-114210000D02*
X144512500Y-114210000D01*
X142700000Y-111140000D02*
X142460000Y-110810000D01*
X142940000Y-110810000D01*
X142700000Y-111140000D01*
G36*
X142700000Y-111140000D02*
G01*
X142460000Y-110810000D01*
X142940000Y-110810000D01*
X142700000Y-111140000D01*
G37*
%TO.C,Q1*%
X139425000Y-111647500D02*
X140075000Y-111647500D01*
X139425000Y-111647500D02*
X138775000Y-111647500D01*
X139425000Y-108527500D02*
X140075000Y-108527500D01*
X139425000Y-108527500D02*
X138775000Y-108527500D01*
X140827500Y-111927500D02*
X140347500Y-111927500D01*
X140587500Y-111597500D01*
X140827500Y-111927500D01*
G36*
X140827500Y-111927500D02*
G01*
X140347500Y-111927500D01*
X140587500Y-111597500D01*
X140827500Y-111927500D01*
G37*
%TO.C,D28*%
X160885302Y-105506765D02*
X162011386Y-104561868D01*
X162011386Y-104561868D02*
X160542617Y-102811456D01*
X159416532Y-103756356D02*
X160885302Y-105506765D01*
%TO.C,D27*%
X157408503Y-98889976D02*
X156282419Y-99834873D01*
X156282419Y-99834873D02*
X157751188Y-101585285D01*
X158877273Y-100640385D02*
X157408503Y-98889976D01*
%TO.C,D26*%
X155485302Y-98906765D02*
X156611386Y-97961868D01*
X156611386Y-97961868D02*
X155142617Y-96211456D01*
X154016532Y-97156356D02*
X155485302Y-98906765D01*
%TO.C,D25*%
X152002308Y-92486717D02*
X150876224Y-93431614D01*
X150876224Y-93431614D02*
X152344993Y-95182026D01*
X153471078Y-94237126D02*
X152002308Y-92486717D01*
%TO.C,D24*%
X149885302Y-92406765D02*
X151011386Y-91461868D01*
X151011386Y-91461868D02*
X149542617Y-89711456D01*
X148416532Y-90656356D02*
X149885302Y-92406765D01*
%TO.C,D23*%
X146308503Y-86189976D02*
X145182419Y-87134873D01*
X145182419Y-87134873D02*
X146651185Y-88885285D01*
X147777273Y-87940388D02*
X146308503Y-86189976D01*
%TO.C,D22*%
X147902707Y-83518484D02*
X146204620Y-85047446D01*
X147188242Y-86139870D02*
X148886328Y-84610911D01*
X146204620Y-85047446D02*
X147188242Y-86139870D01*
%TO.C,D21*%
X152169777Y-81569671D02*
X151130328Y-80530224D01*
X151130328Y-80530224D02*
X149514592Y-82145961D01*
X150554041Y-83185410D02*
X152169777Y-81569671D01*
%TO.C,D20*%
X149117472Y-81104847D02*
X149397961Y-79661856D01*
X149397961Y-79661856D02*
X147154944Y-79225856D01*
X146874454Y-80668850D02*
X149117472Y-81104847D01*
%TO.C,D19*%
X142109497Y-78244891D02*
X141829008Y-79687882D01*
X141829008Y-79687882D02*
X144072025Y-80123882D01*
X144352515Y-78680888D02*
X142109497Y-78244891D01*
%TO.C,D18*%
X140434808Y-79244953D02*
X140690071Y-77797286D01*
X140690071Y-77797286D02*
X138439786Y-77400499D01*
X138184523Y-78848168D02*
X140434808Y-79244953D01*
%TO.C,D17*%
X133640728Y-76455047D02*
X133385465Y-77902714D01*
X133385465Y-77902714D02*
X135635750Y-78299501D01*
X135891013Y-76851832D02*
X133640728Y-76455047D01*
%TO.C,D16*%
X131959273Y-77644953D02*
X132214535Y-76197286D01*
X132214535Y-76197286D02*
X129964248Y-75800502D01*
X129708986Y-77248169D02*
X131959273Y-77644953D01*
%TO.C,D15*%
X127025449Y-79359327D02*
X128495226Y-79384981D01*
X128495226Y-79384981D02*
X128535104Y-77100329D01*
X127065327Y-77074675D02*
X127025449Y-79359327D01*
%TO.C,D14*%
X128575864Y-82246856D02*
X128456274Y-79964988D01*
X126988288Y-80041922D02*
X127107877Y-82323791D01*
X128456274Y-79964988D02*
X126988288Y-80041922D01*
%TO.C,D13*%
X127415446Y-86918235D02*
X128881865Y-86815693D01*
X128881865Y-86815693D02*
X128722470Y-84536258D01*
X127256050Y-84638802D02*
X127415446Y-86918235D01*
%TO.C,D12*%
X128884555Y-87852926D02*
X127418135Y-87955470D01*
X127418135Y-87955470D02*
X127577530Y-90234905D01*
X129043948Y-90132360D02*
X128884555Y-87852926D01*
%TO.C,D11*%
X127825312Y-94618236D02*
X129291731Y-94515692D01*
X129291731Y-94515692D02*
X129132336Y-92236257D01*
X127665918Y-92338802D02*
X127825312Y-94618236D01*
%TO.C,D10*%
X129727016Y-97904463D02*
X129448547Y-95636493D01*
X127989503Y-95815644D02*
X128267976Y-98083612D01*
X129448547Y-95636493D02*
X127989503Y-95815644D01*
%TO.C,D9*%
X132270512Y-98858885D02*
X131406468Y-97669629D01*
X131406468Y-97669629D02*
X129557864Y-99012719D01*
X130421908Y-100201974D02*
X132270512Y-98858885D01*
%TO.C,D8*%
X132142769Y-96980628D02*
X133027436Y-98154623D01*
X133027436Y-98154623D02*
X134852319Y-96779475D01*
X133967650Y-95605480D02*
X132142769Y-96980628D01*
%TO.C,D7*%
X136422728Y-97359614D02*
X137891497Y-99110026D01*
X139017582Y-98165126D02*
X137548812Y-96414715D01*
X137891497Y-99110026D02*
X139017582Y-98165126D01*
%TO.C,D6*%
X139902308Y-99086714D02*
X138776223Y-100031614D01*
X138776223Y-100031614D02*
X140244993Y-101782025D01*
X141371077Y-100837126D02*
X139902308Y-99086714D01*
%TO.C,D5*%
X143485302Y-105506766D02*
X144611387Y-104561866D01*
X144611387Y-104561866D02*
X143142617Y-102811455D01*
X142016533Y-103756354D02*
X143485302Y-105506766D01*
%TO.C,D4*%
X145602308Y-105686714D02*
X144476223Y-106631614D01*
X144476223Y-106631614D02*
X145944993Y-108382025D01*
X147071077Y-107437126D02*
X145602308Y-105686714D01*
%TO.C,D3*%
X149185302Y-112106766D02*
X150311387Y-111161866D01*
X150311387Y-111161866D02*
X148842617Y-109411455D01*
X147716533Y-110356354D02*
X149185302Y-112106766D01*
%TO.C,D2*%
X152771077Y-114037126D02*
X151302308Y-112286714D01*
X150176223Y-113231614D02*
X151644993Y-114982025D01*
X151302308Y-112286714D02*
X150176223Y-113231614D01*
%TO.C,D1*%
X154791497Y-118710026D02*
X155917582Y-117765126D01*
X155917582Y-117765126D02*
X154448812Y-116014715D01*
X153322728Y-116959614D02*
X154791497Y-118710026D01*
%TO.C,C2*%
X147359421Y-117910003D02*
X147640582Y-117910001D01*
X147359418Y-116889999D02*
X147640579Y-116889997D01*
%TO.C,C1*%
X137365580Y-103610000D02*
X137084420Y-103610000D01*
X137365580Y-102590000D02*
X137084420Y-102590000D01*
%TO.C,Q3*%
X137890000Y-106037500D02*
X137890000Y-106687500D01*
X137890000Y-106037500D02*
X137890000Y-105387500D01*
X141010000Y-106037500D02*
X141010000Y-106687500D01*
X141010000Y-106037500D02*
X141010000Y-105387500D01*
X137940000Y-107200000D02*
X137610000Y-107440000D01*
X137610000Y-106960000D01*
X137940000Y-107200000D01*
G36*
X137940000Y-107200000D02*
G01*
X137610000Y-107440000D01*
X137610000Y-106960000D01*
X137940000Y-107200000D01*
G37*
%TD*%
M02*
