%TF.GenerationSoftware,KiCad,Pcbnew,8.0.5*%
%TF.CreationDate,2024-10-10T15:52:27-04:00*%
%TF.ProjectId,MovieMarqueeSAO,4d6f7669-654d-4617-9271-75656553414f,rev?*%
%TF.SameCoordinates,Original*%
%TF.FileFunction,Legend,Bot*%
%TF.FilePolarity,Positive*%
%FSLAX46Y46*%
G04 Gerber Fmt 4.6, Leading zero omitted, Abs format (unit mm)*
G04 Created by KiCad (PCBNEW 8.0.5) date 2024-10-10 15:52:27*
%MOMM*%
%LPD*%
G01*
G04 APERTURE LIST*
%ADD10C,0.200000*%
G04 APERTURE END LIST*
D10*
X160364744Y-109656032D02*
X160686138Y-110039054D01*
X160084246Y-110544101D02*
X161233312Y-109579920D01*
X161233312Y-109579920D02*
X160774178Y-109032745D01*
X158945215Y-109075534D02*
X158982324Y-109230882D01*
X158982324Y-109230882D02*
X159165978Y-109449752D01*
X159165978Y-109449752D02*
X159312522Y-109513274D01*
X159312522Y-109513274D02*
X159467870Y-109476164D01*
X159467870Y-109476164D02*
X159905610Y-109108857D01*
X159905610Y-109108857D02*
X159969131Y-108962313D01*
X159969131Y-108962313D02*
X159932022Y-108806965D01*
X159932022Y-108806965D02*
X159748369Y-108588095D01*
X159748369Y-108588095D02*
X159601824Y-108524573D01*
X159601824Y-108524573D02*
X159446476Y-108561683D01*
X159446476Y-108561683D02*
X159337041Y-108653509D01*
X159337041Y-108653509D02*
X159686740Y-109292511D01*
X158018143Y-108081816D02*
X158620035Y-107576768D01*
X158620035Y-107576768D02*
X158775383Y-107539659D01*
X158775383Y-107539659D02*
X158921928Y-107603181D01*
X158921928Y-107603181D02*
X159105581Y-107822051D01*
X159105581Y-107822051D02*
X159142690Y-107977399D01*
X158072860Y-108035902D02*
X158109970Y-108191251D01*
X158109970Y-108191251D02*
X158339537Y-108464838D01*
X158339537Y-108464838D02*
X158486081Y-108528360D01*
X158486081Y-108528360D02*
X158641429Y-108491250D01*
X158641429Y-108491250D02*
X158750864Y-108399423D01*
X158750864Y-108399423D02*
X158814386Y-108252879D01*
X158814386Y-108252879D02*
X158777276Y-108097531D01*
X158777276Y-108097531D02*
X158547709Y-107823944D01*
X158547709Y-107823944D02*
X158510600Y-107668595D01*
X158462793Y-107056006D02*
X158095486Y-106618266D01*
X158708075Y-106570460D02*
X157723161Y-107396901D01*
X157723161Y-107396901D02*
X157567813Y-107434010D01*
X157567813Y-107434010D02*
X157421269Y-107370489D01*
X157421269Y-107370489D02*
X157329442Y-107261054D01*
X157360872Y-105742787D02*
X156594827Y-106385574D01*
X157774092Y-106235244D02*
X157172200Y-106740291D01*
X157172200Y-106740291D02*
X157016852Y-106777401D01*
X157016852Y-106777401D02*
X156870308Y-106713879D01*
X156870308Y-106713879D02*
X156732567Y-106549727D01*
X156732567Y-106549727D02*
X156695458Y-106394378D01*
X156695458Y-106394378D02*
X156704262Y-106293748D01*
X156135693Y-105838400D02*
X156901738Y-105195612D01*
X156682868Y-105379266D02*
X156746389Y-105232721D01*
X156746389Y-105232721D02*
X156755193Y-105132091D01*
X156755193Y-105132091D02*
X156718084Y-104976742D01*
X156718084Y-104976742D02*
X156626257Y-104867307D01*
X155538819Y-105127073D02*
X156304864Y-104484285D01*
X156687886Y-104162892D02*
X156679082Y-104263522D01*
X156679082Y-104263522D02*
X156578451Y-104254718D01*
X156578451Y-104254718D02*
X156587255Y-104154088D01*
X156587255Y-104154088D02*
X156687886Y-104162892D01*
X156687886Y-104162892D02*
X156578451Y-104254718D01*
X155845729Y-103937111D02*
X155079685Y-104579898D01*
X155736295Y-104028937D02*
X155745099Y-103928307D01*
X155745099Y-103928307D02*
X155707989Y-103772958D01*
X155707989Y-103772958D02*
X155570249Y-103608806D01*
X155570249Y-103608806D02*
X155423705Y-103545284D01*
X155423705Y-103545284D02*
X155268356Y-103582394D01*
X155268356Y-103582394D02*
X154666464Y-104087441D01*
X154560154Y-102405022D02*
X153629957Y-103185549D01*
X153629957Y-103185549D02*
X153566436Y-103332094D01*
X153566436Y-103332094D02*
X153557632Y-103432725D01*
X153557632Y-103432725D02*
X153594741Y-103588073D01*
X153594741Y-103588073D02*
X153732481Y-103752225D01*
X153732481Y-103752225D02*
X153879026Y-103815747D01*
X153848827Y-103001896D02*
X153885937Y-103157244D01*
X153885937Y-103157244D02*
X154069590Y-103376114D01*
X154069590Y-103376114D02*
X154216134Y-103439636D01*
X154216134Y-103439636D02*
X154316765Y-103448440D01*
X154316765Y-103448440D02*
X154472114Y-103411330D01*
X154472114Y-103411330D02*
X154800418Y-103135850D01*
X154800418Y-103135850D02*
X154863940Y-102989306D01*
X154863940Y-102989306D02*
X154872744Y-102888675D01*
X154872744Y-102888675D02*
X154835635Y-102733326D01*
X154835635Y-102733326D02*
X154651981Y-102514457D01*
X154651981Y-102514457D02*
X154505437Y-102450935D01*
X152963882Y-100947151D02*
X152416708Y-101406285D01*
X153887168Y-100825126D02*
X152963882Y-100947151D01*
X152963882Y-100947151D02*
X153244381Y-100059082D01*
X151636180Y-100476089D02*
X151782724Y-100539610D01*
X151782724Y-100539610D02*
X151883355Y-100548414D01*
X151883355Y-100548414D02*
X152038704Y-100511305D01*
X152038704Y-100511305D02*
X152367008Y-100235825D01*
X152367008Y-100235825D02*
X152430530Y-100089280D01*
X152430530Y-100089280D02*
X152439334Y-99988650D01*
X152439334Y-99988650D02*
X152402225Y-99833301D01*
X152402225Y-99833301D02*
X152264484Y-99669149D01*
X152264484Y-99669149D02*
X152117940Y-99605627D01*
X152117940Y-99605627D02*
X152017309Y-99596823D01*
X152017309Y-99596823D02*
X151861961Y-99633933D01*
X151861961Y-99633933D02*
X151533656Y-99909413D01*
X151533656Y-99909413D02*
X151470135Y-100055957D01*
X151470135Y-100055957D02*
X151461331Y-100156588D01*
X151461331Y-100156588D02*
X151498440Y-100311936D01*
X151498440Y-100311936D02*
X151636180Y-100476089D01*
X151254389Y-98465365D02*
X150488345Y-99108152D01*
X151667610Y-98957822D02*
X151065718Y-99462869D01*
X151065718Y-99462869D02*
X150910370Y-99499978D01*
X150910370Y-99499978D02*
X150763825Y-99436457D01*
X150763825Y-99436457D02*
X150626085Y-99272305D01*
X150626085Y-99272305D02*
X150588976Y-99116956D01*
X150588976Y-99116956D02*
X150597780Y-99016325D01*
X150138646Y-98469151D02*
X150038015Y-98460347D01*
X150038015Y-98460347D02*
X150029211Y-98560977D01*
X150029211Y-98560977D02*
X150129842Y-98569782D01*
X150129842Y-98569782D02*
X150138646Y-98469151D01*
X150138646Y-98469151D02*
X150029211Y-98560977D01*
X150466951Y-98193670D02*
X151169473Y-97697427D01*
X151169473Y-97697427D02*
X151178278Y-97596796D01*
X151178278Y-97596796D02*
X151077647Y-97587992D01*
X151077647Y-97587992D02*
X150466951Y-98193670D01*
X150466951Y-98193670D02*
X151178278Y-97596796D01*
X158514811Y-111208310D02*
X158322353Y-111090071D01*
X158322353Y-111090071D02*
X158221722Y-111081267D01*
X158221722Y-111081267D02*
X158066374Y-111118376D01*
X158066374Y-111118376D02*
X157902222Y-111256116D01*
X157902222Y-111256116D02*
X157838700Y-111402660D01*
X157838700Y-111402660D02*
X157829896Y-111503291D01*
X157829896Y-111503291D02*
X157867005Y-111658639D01*
X157867005Y-111658639D02*
X158234313Y-112096379D01*
X158234313Y-112096379D02*
X159383379Y-111132198D01*
X159383379Y-111132198D02*
X159061985Y-110749176D01*
X159061985Y-110749176D02*
X158915441Y-110685654D01*
X158915441Y-110685654D02*
X158814810Y-110676850D01*
X158814810Y-110676850D02*
X158659462Y-110713959D01*
X158659462Y-110713959D02*
X158550027Y-110805786D01*
X158550027Y-110805786D02*
X158486505Y-110952330D01*
X158486505Y-110952330D02*
X158477701Y-111052961D01*
X158477701Y-111052961D02*
X158514811Y-111208310D01*
X158514811Y-111208310D02*
X158836205Y-111591332D01*
X158128002Y-110413960D02*
X157132391Y-110783160D01*
X157668868Y-109866785D02*
X157132391Y-110783160D01*
X157132391Y-110783160D02*
X156950630Y-111122162D01*
X156950630Y-111122162D02*
X156941826Y-111222793D01*
X156941826Y-111222793D02*
X156978936Y-111378141D01*
X155800902Y-109196354D02*
X156949969Y-108232173D01*
X156949969Y-108232173D02*
X155249942Y-108539744D01*
X155249942Y-108539744D02*
X156399008Y-107575563D01*
X154377587Y-107500112D02*
X154979479Y-106995065D01*
X154979479Y-106995065D02*
X155134827Y-106957956D01*
X155134827Y-106957956D02*
X155281371Y-107021477D01*
X155281371Y-107021477D02*
X155465025Y-107240347D01*
X155465025Y-107240347D02*
X155502134Y-107395695D01*
X154432304Y-107454199D02*
X154469414Y-107609547D01*
X154469414Y-107609547D02*
X154698981Y-107883135D01*
X154698981Y-107883135D02*
X154845525Y-107946656D01*
X154845525Y-107946656D02*
X155000873Y-107909547D01*
X155000873Y-107909547D02*
X155110308Y-107817720D01*
X155110308Y-107817720D02*
X155173830Y-107671176D01*
X155173830Y-107671176D02*
X155136720Y-107515827D01*
X155136720Y-107515827D02*
X154907153Y-107242240D01*
X154907153Y-107242240D02*
X154870044Y-107086892D01*
X154684497Y-106310150D02*
X153918453Y-106952938D01*
X154575062Y-106401977D02*
X154583866Y-106301346D01*
X154583866Y-106301346D02*
X154546757Y-106145998D01*
X154546757Y-106145998D02*
X154409017Y-105981845D01*
X154409017Y-105981845D02*
X154262472Y-105918324D01*
X154262472Y-105918324D02*
X154107124Y-105955433D01*
X154107124Y-105955433D02*
X153505232Y-106460481D01*
X153046098Y-105913306D02*
X153812142Y-105270518D01*
X154195165Y-104949124D02*
X154186361Y-105049755D01*
X154186361Y-105049755D02*
X154085730Y-105040951D01*
X154085730Y-105040951D02*
X154094534Y-104940320D01*
X154094534Y-104940320D02*
X154195165Y-104949124D01*
X154195165Y-104949124D02*
X154085730Y-105040951D01*
X152586964Y-105366131D02*
X153736030Y-104401950D01*
X152932877Y-104889389D02*
X152219657Y-104928391D01*
X152985701Y-104285604D02*
X152915269Y-105090651D01*
X151446040Y-103339692D02*
X150986906Y-102792517D01*
X151209562Y-103724607D02*
X152037235Y-102377403D01*
X152037235Y-102377403D02*
X150566774Y-102958563D01*
X149832160Y-102083084D02*
X150981226Y-101118902D01*
X149886877Y-102037170D02*
X149923987Y-102192518D01*
X149923987Y-102192518D02*
X150107640Y-102411388D01*
X150107640Y-102411388D02*
X150254184Y-102474910D01*
X150254184Y-102474910D02*
X150354815Y-102483714D01*
X150354815Y-102483714D02*
X150510164Y-102446605D01*
X150510164Y-102446605D02*
X150838468Y-102171124D01*
X150838468Y-102171124D02*
X150901990Y-102024580D01*
X150901990Y-102024580D02*
X150910794Y-101923949D01*
X150910794Y-101923949D02*
X150873685Y-101768601D01*
X150873685Y-101768601D02*
X150690031Y-101549731D01*
X150690031Y-101549731D02*
X150543487Y-101486209D01*
X150139070Y-100893121D02*
X149373026Y-101535909D01*
X150029635Y-100984948D02*
X150038439Y-100884317D01*
X150038439Y-100884317D02*
X150001330Y-100728969D01*
X150001330Y-100728969D02*
X149863590Y-100564816D01*
X149863590Y-100564816D02*
X149717046Y-100501295D01*
X149717046Y-100501295D02*
X149561697Y-100538404D01*
X149561697Y-100538404D02*
X148959805Y-101043452D01*
X148087450Y-100003820D02*
X148689342Y-99498772D01*
X148689342Y-99498772D02*
X148844691Y-99461663D01*
X148844691Y-99461663D02*
X148991235Y-99525185D01*
X148991235Y-99525185D02*
X149174889Y-99744054D01*
X149174889Y-99744054D02*
X149211998Y-99899403D01*
X148142168Y-99957906D02*
X148179277Y-100113255D01*
X148179277Y-100113255D02*
X148408844Y-100386842D01*
X148408844Y-100386842D02*
X148555388Y-100450364D01*
X148555388Y-100450364D02*
X148710737Y-100413254D01*
X148710737Y-100413254D02*
X148820172Y-100321427D01*
X148820172Y-100321427D02*
X148883693Y-100174883D01*
X148883693Y-100174883D02*
X148846584Y-100019535D01*
X148846584Y-100019535D02*
X148617017Y-99745948D01*
X148617017Y-99745948D02*
X148579908Y-99590599D01*
X148394361Y-98813857D02*
X147628316Y-99456645D01*
X148284926Y-98905684D02*
X148293730Y-98805053D01*
X148293730Y-98805053D02*
X148256621Y-98649705D01*
X148256621Y-98649705D02*
X148118880Y-98485553D01*
X148118880Y-98485553D02*
X147972336Y-98422031D01*
X147972336Y-98422031D02*
X147816988Y-98459141D01*
X147816988Y-98459141D02*
X147215096Y-98964188D01*
X146755962Y-98417013D02*
X147522006Y-97774226D01*
X147905028Y-97452832D02*
X147896224Y-97553463D01*
X147896224Y-97553463D02*
X147795593Y-97544659D01*
X147795593Y-97544659D02*
X147804397Y-97444028D01*
X147804397Y-97444028D02*
X147905028Y-97452832D01*
X147905028Y-97452832D02*
X147795593Y-97544659D01*
X157242251Y-113115304D02*
X156292553Y-113539222D01*
X156292553Y-113539222D02*
X156656074Y-112861218D01*
X156656074Y-112861218D02*
X155925246Y-113101483D01*
X155925246Y-113101483D02*
X156507636Y-112239825D01*
X156232156Y-111911520D02*
X155282458Y-112335438D01*
X155282458Y-112335438D02*
X155645979Y-111657434D01*
X155645979Y-111657434D02*
X154915150Y-111897698D01*
X154915150Y-111897698D02*
X155497541Y-111036041D01*
X155222061Y-110707736D02*
X154272363Y-111131653D01*
X154272363Y-111131653D02*
X154635884Y-110453649D01*
X154635884Y-110453649D02*
X153905055Y-110693914D01*
X153905055Y-110693914D02*
X154487446Y-109832256D01*
X153463529Y-109945477D02*
X153362898Y-109936673D01*
X153362898Y-109936673D02*
X153354094Y-110037304D01*
X153354094Y-110037304D02*
X153454725Y-110046108D01*
X153454725Y-110046108D02*
X153463529Y-109945477D01*
X153463529Y-109945477D02*
X153354094Y-110037304D01*
X153661005Y-108847341D02*
X152894960Y-109490129D01*
X153551570Y-108939168D02*
X153560374Y-108838537D01*
X153560374Y-108838537D02*
X153523264Y-108683189D01*
X153523264Y-108683189D02*
X153385524Y-108519037D01*
X153385524Y-108519037D02*
X153238980Y-108455515D01*
X153238980Y-108455515D02*
X153083632Y-108492624D01*
X153083632Y-108492624D02*
X152481739Y-108997672D01*
X151609385Y-107958040D02*
X152211277Y-107452993D01*
X152211277Y-107452993D02*
X152366625Y-107415883D01*
X152366625Y-107415883D02*
X152513169Y-107479405D01*
X152513169Y-107479405D02*
X152696823Y-107698275D01*
X152696823Y-107698275D02*
X152733932Y-107853623D01*
X151664102Y-107912127D02*
X151701212Y-108067475D01*
X151701212Y-108067475D02*
X151930779Y-108341062D01*
X151930779Y-108341062D02*
X152077323Y-108404584D01*
X152077323Y-108404584D02*
X152232671Y-108367474D01*
X152232671Y-108367474D02*
X152342106Y-108275648D01*
X152342106Y-108275648D02*
X152405628Y-108129103D01*
X152405628Y-108129103D02*
X152368518Y-107973755D01*
X152368518Y-107973755D02*
X152138951Y-107700168D01*
X152138951Y-107700168D02*
X152101842Y-107544819D01*
X151916295Y-106768078D02*
X151150251Y-107410865D01*
X151806860Y-106859904D02*
X151815664Y-106759274D01*
X151815664Y-106759274D02*
X151778555Y-106603925D01*
X151778555Y-106603925D02*
X151640815Y-106439773D01*
X151640815Y-106439773D02*
X151494270Y-106376251D01*
X151494270Y-106376251D02*
X151338922Y-106413361D01*
X151338922Y-106413361D02*
X150737030Y-106918408D01*
X150277896Y-106371233D02*
X151043940Y-105728446D01*
X151426963Y-105407052D02*
X151418159Y-105507683D01*
X151418159Y-105507683D02*
X151317528Y-105498879D01*
X151317528Y-105498879D02*
X151326332Y-105398248D01*
X151326332Y-105398248D02*
X151426963Y-105407052D01*
X151426963Y-105407052D02*
X151317528Y-105498879D01*
X149818762Y-105824059D02*
X150967828Y-104859877D01*
X150164675Y-105347316D02*
X149451455Y-105386319D01*
X150217499Y-104743531D02*
X150147067Y-105548578D01*
X149147669Y-104802035D02*
X149047038Y-104793231D01*
X149047038Y-104793231D02*
X149038234Y-104893862D01*
X149038234Y-104893862D02*
X149138865Y-104902666D01*
X149138865Y-104902666D02*
X149147669Y-104802035D01*
X149147669Y-104802035D02*
X149038234Y-104893862D01*
X148220596Y-103808316D02*
X148257706Y-103963665D01*
X148257706Y-103963665D02*
X148441359Y-104182534D01*
X148441359Y-104182534D02*
X148587904Y-104246056D01*
X148587904Y-104246056D02*
X148688534Y-104254860D01*
X148688534Y-104254860D02*
X148843883Y-104217751D01*
X148843883Y-104217751D02*
X149172188Y-103942270D01*
X149172188Y-103942270D02*
X149235709Y-103795726D01*
X149235709Y-103795726D02*
X149244513Y-103695095D01*
X149244513Y-103695095D02*
X149207404Y-103539747D01*
X149207404Y-103539747D02*
X149023750Y-103320877D01*
X149023750Y-103320877D02*
X148877206Y-103257355D01*
X147339438Y-102869316D02*
X147941330Y-102364268D01*
X147941330Y-102364268D02*
X148096678Y-102327159D01*
X148096678Y-102327159D02*
X148243223Y-102390680D01*
X148243223Y-102390680D02*
X148426876Y-102609550D01*
X148426876Y-102609550D02*
X148463986Y-102764898D01*
X147394155Y-102823402D02*
X147431265Y-102978750D01*
X147431265Y-102978750D02*
X147660832Y-103252338D01*
X147660832Y-103252338D02*
X147807376Y-103315859D01*
X147807376Y-103315859D02*
X147962724Y-103278750D01*
X147962724Y-103278750D02*
X148072159Y-103186923D01*
X148072159Y-103186923D02*
X148135681Y-103040379D01*
X148135681Y-103040379D02*
X148098571Y-102885031D01*
X148098571Y-102885031D02*
X147869004Y-102611443D01*
X147869004Y-102611443D02*
X147831895Y-102456095D01*
X155619992Y-114383298D02*
X155628796Y-114282667D01*
X155628796Y-114282667D02*
X155591686Y-114127319D01*
X155591686Y-114127319D02*
X155362119Y-113853732D01*
X155362119Y-113853732D02*
X155215575Y-113790210D01*
X155215575Y-113790210D02*
X155114944Y-113781406D01*
X155114944Y-113781406D02*
X154959596Y-113818515D01*
X154959596Y-113818515D02*
X154850161Y-113910342D01*
X154850161Y-113910342D02*
X154731922Y-114102800D01*
X154731922Y-114102800D02*
X154626273Y-115310370D01*
X154626273Y-115310370D02*
X154029399Y-114599043D01*
X154581592Y-112923535D02*
X154489765Y-112814100D01*
X154489765Y-112814100D02*
X154343221Y-112750579D01*
X154343221Y-112750579D02*
X154242590Y-112741775D01*
X154242590Y-112741775D02*
X154087242Y-112778884D01*
X154087242Y-112778884D02*
X153822458Y-112907820D01*
X153822458Y-112907820D02*
X153548871Y-113137387D01*
X153548871Y-113137387D02*
X153375915Y-113375758D01*
X153375915Y-113375758D02*
X153312393Y-113522302D01*
X153312393Y-113522302D02*
X153303589Y-113622933D01*
X153303589Y-113622933D02*
X153340698Y-113778282D01*
X153340698Y-113778282D02*
X153432525Y-113887716D01*
X153432525Y-113887716D02*
X153579069Y-113951238D01*
X153579069Y-113951238D02*
X153679700Y-113960042D01*
X153679700Y-113960042D02*
X153835049Y-113922933D01*
X153835049Y-113922933D02*
X154099832Y-113793997D01*
X154099832Y-113793997D02*
X154373419Y-113564430D01*
X154373419Y-113564430D02*
X154546376Y-113326058D01*
X154546376Y-113326058D02*
X154609897Y-113179514D01*
X154609897Y-113179514D02*
X154618701Y-113078883D01*
X154618701Y-113078883D02*
X154581592Y-112923535D01*
X153783456Y-112194600D02*
X153792260Y-112093969D01*
X153792260Y-112093969D02*
X153755151Y-111938621D01*
X153755151Y-111938621D02*
X153525584Y-111665034D01*
X153525584Y-111665034D02*
X153379040Y-111601512D01*
X153379040Y-111601512D02*
X153278409Y-111592708D01*
X153278409Y-111592708D02*
X153123060Y-111629818D01*
X153123060Y-111629818D02*
X153013626Y-111721644D01*
X153013626Y-111721644D02*
X152895387Y-111914102D01*
X152895387Y-111914102D02*
X152789738Y-113121672D01*
X152789738Y-113121672D02*
X152192864Y-112410345D01*
X152132467Y-110782644D02*
X151366423Y-111425431D01*
X152799774Y-110688924D02*
X152208579Y-111651212D01*
X152208579Y-111651212D02*
X151611705Y-110939885D01*
M02*
